<svg id="Layer_2" xmlns="http://www.w3.org/2000/svg" viewBox="0 0 430 198.3"><style>.st0{fill:#fff}</style><path class="st0" d="M130 177.8h.4v.2h-.4v-.2zm.6.2c0 .1.1 0 .2 0 0 .2 0 .2-.2.2v.2h-.4c0-.7-.2.5-.2.6h1v-.4h.2v-.6c.7 0-.4-.2-.6-.2v.2zm-4.2 13.2h.2v-.2h-.2v.2zm-1.2-13.4h-.4v.8h-.2v.4h.2v.2h.4v-.8h.2v-.2h.2v-.2h.2v-.2c.2 0 .2 0 .2-.2h-.8v.2zm1.8 6.6h-.2v.2h-.4c0 .4.5.2.8.2v-1h-.2v.6zm-7.9-5.1h.2v.2h.4v-.2h.2v-.2h-.8v.2zm7.9 3.9h.2v-.2h-.2v.2zm-2.6-3.9h.2v-.2h-.2v.2zm5.6-2.5h-.2v-.2h-.2v-.2h-.6v.2h-.2v.4h-.2v.2h-.2v.2h-.2v.2h-.2v.6h-.2v.4h-.2v.2h-.2v.2h1v-.2h.4v-.6h.2v-.6h.2v-.2h.2v-.2h.4v-.2h.2v-.2zm-5 8h.4v-.2h-.4v.2zm-1.6 0h.2v-.2h-.2v.2zm-12.9-2.2h.6c0-.4-.2-.2-.6-.2v.2zm5.2-2.6h.2v-.2h-.2v.2zm8.5-2.4h.2v-.4h-.2v-.2h-.4v.2c-.2 0-.2 0-.2.2h-.2v.4h.4v.4h-.2v.2h-.4v.6h-.4v-.2c-.2 0-.2 0-.2.2h-.2v.4h-.2v.2h.8v-.2h.6c0-.4-.2 0-.2-.4h.4v-.4h.2v-.8h.2v-.2zM122 185h.2v-.2h-.2v.2zm-4.2-5.7h-.2v.2h-.2v.2h-.2v.2h.6v-.2h.2v-.6h.2v-.2h-.4v.4zm6.4.1h.2v-.2h-.2v.2zm-6-.5h.2v-.2h-.2v.2zm2.4 6.1h.2v-.2h-.2v.2zm1.6-7.6h.4v-.4h-.4v.2h-.4v.2h-.2v.4h-.2v.2h-.2v.2h-.2v.4h-.2v.2h-.2v.4h-.4v.4h1v-.2h.2v-.8h.2v-.2h.2v-.4h.4v-.6zm4.6 1.5v-.4h-.6v.6c.2 0 .2 0 .2-.2h.4zm-15.9 2.9h.2v-.2h-.2v.2zm-2.2 4.2h.2v-.2h-.2v.2zm.6 3.4v.2h.4v-.2h-.4zm-.6-4.4h.2v-.2h-.2v.2zm2.4 8.8h-.4v.4h.6v-.2h-.2v-.2zm-2-.7c0 .1.1 0 .2 0v.6h.2v.2h.6v-.8c.8 0-.8-.2-1-.2v.2zm.4-6.7h-.2v.2h.4v-.2h.2v-.2h-.4v.2zm.6 4.2h.2v-1.4h-.2V190.6zm-.2-6.4h-.4v.2h.4v-.2zm.4 7.4h.8c0 .3.2.3.2 0 .8 0-.8-.2-1-.2v.2zm-1.2-3.8h-.6v.4h3c0-.4-.5-.2-.8-.2v-.2h-.1v.2c-.2.1-.3-.1-.4-.2h-.3v.2h-.6v-.2h.4v-.2h1.4v.2h.6v.4h.4v-.2c.2 0 .2 0 .2-.2h-.2v-.2h-.6v-.2h-.6v-.2h-1v.2h-.4v.2h-.4v.2zm2.2 1.8v-.4h-.4v.4h.4zm-2.2 2c1.4 0 1.1-.2 0-.2v.2zm1.2-6.7c0 1.2.2 1.4.2.1.4 0 .1-.2-.2-.2v.1zm306-29.3c.1 0 .1-.4-.1-.3 0 0 0 .3.1.3zm-303 27.2h.2v3.4h-.4v-.2h-.2v-.4h-.2c0-.2 0-.2-.2-.2v.6h-.1c-.3 0-.5.1-.5-.2h.2v-.2c.2 0 .2 0 .2-.2h-.2v-.2h.6v-.4h-.4v.2h-.2v-.6h-.2c0-.3.1-.2.4-.2v.4h.2v-.6h-.2c0-.3.1-.2.4-.2v-.2h-.2v-.2h.6v-.4h.2v-.2zm-.2.9c0-.1-.3-.2-.3 0 0 0 .3.1.3 0zm-2.8.5v.2h.2v-.2h-.2zm1.2 8.8v.2c0 .1.1 0 .2 0v.8h.6v-.2h.2v-.6h.4c0-.5-1.1-.2-1.4-.2zm-.4-8.6h.6c0-.4-.1-.2-.6-.2v.2zm.6-2.8h-.4v.2h.4v-.2zm299.6-23.7c.2.1.5-.2.2-.4-.1.2-.5.1-.2.4zM112.9 186v.4h.2v.6h.2v.4h-.4c0-.3-.2-.3-.2 0-.2 0-.2 0-.2-.2h-.2v-.8c-.2 0-.2 0-.2.2h-2v-.4h.6v.2c.3 0 .2 0 .2-.2H112.6c.1-.2 0-.2.3-.2zm-.2.6h-.2v.2h.2v-.2zm299.7-30.8c.1 0 .1-.4-.1-.3-.1 0 0 .4.1.3zm2.8 3.2c.1 0 .1-.4-.1-.3-.1 0 0 .4.1.3zm-302.1 29.8h.2v.8h-.2v.8h.2v.4h-.2v1h-.4v.2c-.2 0-.2 0-.2-.2h-.2v-1h-.2v-.2h-.2c0 .3.1.6-.2.6v-1h.4v-.4h-.4c0-.2.2-1 .2-.4h.6v-1h.2v-.2h.4v.6zm-.4 1v-.2h-.2v.2h.2zm.2 1.4h-.2v.4h.2v-.4zm39.5 1.6c-.2.3-.3.5-.3.8h.7c0-.3-.1-.6-.1-.7-.1-.1-.3-.1-.3-.1zm18.2-86.5c-.1 0 .1 0 0 0zm4.6 4.9c-.1 0 0 .1 0 0zm-3.3-2.5c-.3-.3-.7.6-.8.9.4.1.5-.6.8-.9zm2.2 5.8c.3-.2-.5 0 0 0zm-1.5-8.4c.1 0 .2-.1.3-.1 0-.3-.5-.1-.3.1zm-1.7-3.2c-.1 0 0 .1 0 .2.1 0 0-.1 0-.2zm-.5 3.6c.3-.2-.5 0 0 0zm-129.3 65h-.2v.2h.2v-.2zm-9.7-1.2v-.2h-.2v.2h.2zm148.5 18.2c.1.2.3 1.1.5 2-.3.3-.4.8-.6 1.3-3.7.2-7.4.5-10.8.7-.1-.6-.2-1.4-.1-1.6.1-.3 0-.5 0-.8 0-.7.5-.3.6-.6.2-.4-.3-.1-.4-.2v-.6c1.1.7 0-1-.4-1.2.2-.5.2-.3.6-.6 0-1.3-.2-1.8-.2-3 .2 0 .6.2.7.2 0 0 .2-.2.3-.2.1 0 0 0 0 0-.1-1 0-1.5 0-2.2 0 .1-.2-.8-.2-1 .3-.2.6-.9.8-1.2.3-.2.3-.8 0-1 .2-.4.4-.3.4-1-.6 0-.2-.4-.6-.6 0-.5.1-.6-.2-.8 0 .5-.2 1.1-.2 1.4 0 0 .2.5.2.6-.1.1-.9.6-1 .6-1.5-.3-.7-6.6-.8-7.8 0-.2.1-1.1.2-1.2.2-.1-.2-3.7-.4-3.8-.1-.4-1.5-.5-3.2-.4v-.1l.8-3.2h.4l.1-.1 1.3-.2.1 2.5 3.4.1 2.5 8.1s0 .1.1.3v.1c.1.3.3.7.5 1.2h-.3c-.2.3 0 .1-.2.6-.6 0-.2-.4-.6-.6v-.4c-.3.2-.3.6-.6.8v.4c-1 0-.6.4-1.2.8 0-.1-.1-.3-.2-.2-.4.4 1 .7 1.2.8v.4c-.3.2-.3 0 0 .2v-.2h.2v-.6c.1 0 .7.7.8.6.2-.2-.2-.8-.2-1-.1 0-.5.1-.6 0-.2-.2.2-.2.2-.2.2-.4.4-.1 1-.2v-.6c.3.2.1 0 .6.2v-.4c.8 2.1 2.2 5.5 3.3 8.4h-.1v1.2l.4.2v.8s.4 0 .2.2h-.4c0 .5-.1.6.2.8.3.4.7.6 1.2.8 0 0-.1.6-.2.6h.4c.2.2-.1.2.2.4.3.4-.1.2.3.5-.1-.1 0-.1 0-.1v.1zm-7.6-14.2c.2.2.4-.1.4-.2h-.4v.2zm-1.6 10.3h-.4v.2c.2.3.4-.1.4-.2zm3.2 3.8c-.1.1.1.3.2.2.1-.1-.1-.3-.2-.2zm0-12.7c-.1.1.1.3.2.2.1-.1-.1-.3-.2-.2zm1.6 10.1s-.4.2-.2.4h.2v-.4zm0-3c-.1.1.1.3.2.2.1-.1-.1-.3-.2-.2zm.8-1.5s-.4.2-.2.4h.2v-.4zm2.2 6.3c-.1.1.1.3.2.2.1-.1-.1-.3-.2-.2zm-150.3-9.2h.4v-.2h-.4v.2zm138.5-51.8zm51.8 64.8c-.1 0-.3.3-.6.4v.4c.7 0 1.7-.1 2.6-.2v-.5c-.9-.1-1.7-.2-2-.1zm5 1.4c.1.1.3-.1.2-.2-.1-.1-.3.1-.2.2zm-5.6-15.5c.1.1.3-.1.2-.2-.1-.1-.3.1-.2.2zm6.4 14.1c-.3.3-1.1.3-2 .3v.3c.4 0 .8.1 1 .2 1 .4 4.8.2 5.2-.4-.6-.3-3.5-1.1-4.2-.4zm2-25.3c0 .5 0 2.2.2 3 0 .1.4-.2.4-.2 0-.1-.2-1.5-.2-1.4 0-.3.2-1.1.2-1.6h-.2v-.2h-.2c0 .1-.2.6-.2.4zm-46.1-46.7c.3-.3-.5 0 0 0zm38.9 59.9c-.4-.2-.3-1.1-.4-1.6-.3.2-.1 0-.6.2 0 .3-.2 2.1 0 2.4h.2v-1c.3.2.2.1.4.4h.4v-.4zm-.8 4.1h.6c0-.6 0-.8-.6-.8v-1h-.2c-.3.4.1 1.7.2 1.8zM180.2 161c.7 1.5 1.4 2.9 1.9 4.1l.3-.3-1.4-4.1-.8.3zm38.1 20.4v-.6c-.3.2-.3.5 0 .6zm-.4-3.5h.2v-.4c-.4.2 0 0-.2.4zm-60.1-79.6c.1 0 0-.1 0-.2v.2zm1-1.1c-.1 0 0 0 0 0zm-.8 1.3c.1 0 0-.1 0-.2-.1.1 0 .2 0 .2zm5.7 3.6c.7.4 1.2 1.3 2.1 1.3-.5-.7-1.5-1.4-2.1-1.3zm-2.3-5.3c.1-.1.2-.2.1-.4-.1.1-.1.2-.1.4zm-30.2 80.6h.4v-.2h-.4v.2zm24.7 9.1v-.3s-.1 0-.1.1c0 0 0 .1.1.2zm270-23.7h0zM164.8 96.5c.4-.2-.4 0 0 0zm-56.7 91.1v-.2h.6v-.2h-.8c0 .3-.1.4.2.4zm45.9 1.6c-.1.2-.2.6-.2.8.3.2.1 0 .6.2v.6h-.4c0-.1-.1-.4-.2-.2-.3.5 0 .6-1 .6-.1.1-.2.2-.2.4 0 .1.7.3.8.4v1.5c.4 0 .8 0 1.2-.1l.4-.4.8-4v-.1c-.6-.2-1-.4-1.4-.6 0 .7-.1.7-.4.9zm1.7-.3l.1-1.3c-.3.3-.1.9-.1 1.3zm-23.1-11.3h-.4v.6h-.2v.4h-.2v.4h1v-.2h.2v-1h-.4v-.2zm292-10.3c.1 0 .1-.4-.1-.3-.1 0 0 .3.1.3zm-259.7 1.8v.3c.1-.1.1-.2 0-.3zm257.9-15.3c.1 0 .1-.4-.1-.3-.1 0-.1.3.1.3zm3 12.8c.1 0 .1-.4-.1-.3-.1 0 0 .4.1.3zm1-3.2c-.3-.4-.7-.5-.9-.6 0 .1-.3.4-.4.4.1 0-.1-.4-.2-.1-.2.3-.6 1.1-.3 1.5 1.2 1.4 2.2-.6 1.8-1.2zm-1.5-1.1c-.1 0-.1.4.1.3.1 0 .1-.4-.1-.3zm-260.8 19.3c.2-.1.4-.1.6-.2.1 0 .3-.4.2-.4h-.8v.6zm254.2-27.4c.1 0 .1-.4-.1-.3 0 0 0 .4.1.3zm-252 32.8c-.3-.2-.2-.4-.2-1-.6-.4-1.2-1.2-2-1.4v.2l-.1 5.6-.4 2.3c.8-.1 1.6-.1 2.4-.2.3-.4.6-.5 1-.8 0-.5-.1-1-.4-1.2 0-1.2 0-1.9.4-2.6-.4-.1-.5-.6-.7-.9zm250-30.1c.1 0 .1-.4-.1-.3-.1 0-.1.3.1.3zm-379 11.6h.2v-.2h-.2v.2zm-9.3 15.7v.2h.4v-.4h-.2v-.4h.2v-.2h.2v-.4h-.4v.2h-.4v.2h-.6v-.4h-.4v.6h.4v.2h.4v-.2h.2v.2H28v.2h.2v.2h.2zm0-1.4H28v.2h.4v-.2zm.6-2.6h.2v.2h.2v-.2h.2v-.2H29v.2zm397-13.5c-.1 0-.5.1-.6.2.1 0 .1 1 0 .9.2.4 1 .9 1.1.9.6-.1.7-1 .7-1.2 0-.2.1-.4 0-.5-.4-1-.8-.4-1.2-.3zM29 184c.3 0 .2 0 .2-.2h.4v.2h.4c0-.2 0-.2-.2-.2v-.2H29v.4zm.6-9.6h-.2v.2h.2v-.2zm6-8.1h.2v-.2h-.2v.2zM427.9 11.8c.1 0 .1-.4 0-.3-.2 0-.2.3 0 .3zM7.4 179.4h.2v.6h-.4c0-.2 0-.2-.2-.2v.2h-.2v.2c-.4 0-.1.2.2.2v.2h.2v.4h-1v-.2h-1v.2H5v-.5h-.6v-4.4c1-.1.8-.7.7-1.8h.1v.4h.2v.4h.2v.4h.2v.4H6v.4h.2v.4h.2v.6h.2v.4h.2v.4H7v.4h.2v.4h.2v.5zm-.6-.7h-.9v.9h.9v-.9zm-2.4-6.4v1h.2v-.6h-.2c.1-.2.1-.3 0-.4.1 0 0 0 0 0zm2.4 9.7H7v.2h.6v-.4h-.8v.2zm26.5-16.7h-.2v-.2h-.2v.2h-.2v.6h.8v-.4h-.2v-.2zM4.7 182.8h.6v-.2c.7 0-.4-.2-.6-.2v.4zm27.1 4.4h-.2v.2h.2v-.2zm2.3-22.1h-.2v.6h.2v-.2h.2v-.2h-.2v-.2zM29 185.8v.2h.2v-.2H29zm1.4-11.6h-.2v.2h.2v-.2zm4.8-4.3h.2v-.2h-.2v.2zm-6.4 12.7h.2v-.2h-.2v.2zm4.5 6.8c-.2 0-.2 0-.2.2h-.4v-.4c-.3 0-.2 0-.2.4h-.8v-.4c.2 0 .2 0 .2.2h.4v-.6h-.4v.2h-.2v-.6h.4v.2h.4c0-.2 0-.2-.2-.2v-.6h-.6v-.2h-.2v.2h-.4v1h-.8v4.2h.2v.2h.6v-.2h.2c0-.2.1-1.9.2-1.2h.2v-.2h1.6v-.2h.2v-1.6h-.2v-.4zm-3.7-3c.3 0 .3-.2 0-.2v-.2h-.4v.2h-.4v.4c-.4 0 0 .2 0 .4h-.2v.4h-.2v.4c.2 0 .2 0 .2-.2h.4c0-.4-.2 0-.2-.4h.8v-.8zm.2 2.8v-.6h-.4v-.2H29v-.2h-.6c0 .5-.2 3.8.2 3.8v.6h.8v.2h.4v.2c.3 0 .3-3.8 0-3.8zm-.2-1h-.2v.2h.2v-.2zm197.3-12.5h-.4v1.2h.4v-1.2zM415.6 2.6c.1 0 .1-.4 0-.3-.1 0-.2.3 0 .3zM268.5 44.5c.1-.1-.1-.4-.2-.2-.1 0 .1.3.2.2zM108.3 17.1c.1-.1-.1-.4-.2-.2-.1 0 0 .3.2.2zM3.2 90.7L2 81.4.8 90.9c.4.2 1.9.6 2.5.8l-.1-1zM416.4 3.9c.4-.8-1.6-1.6-1.4-.2.2.6 1.1.9 1.4.2zm-145.8 42c.2-.2-.1-.9-.2-.9-1.3-.5-.6 1.7.2.9zm-167-34.5h-.2-.5c-.8.8 1.4.8.7 0zm4 3.3c.1-.1-.1-.4-.2-.2-.1.1 0 .3.2.2zm-6.6.5h-.2-.2c-.9 1 1.2.9.4 0zm6.1-1.9c-.5-.4-1.4-.1-1.2.7.2.9 2.3.3 1.2-.7zM3.5 147.8c.1-.1 0-.4-.2-.3-.1.1.1.4.2.3zm-3-4.2c-.1 0 0 .4.2.3.1 0 0-.4-.2-.3zM424.2 6.2c-.3-.1-.5.4-.4.6.1.9.9-.3.4-.6zM0 171c-.1.1 0 .4.2.3.1-.1 0-.4-.2-.3zm4.4 12.6s.1 0 0 0c.1-.1.1-.3.1-.4h-.1v.4zm-2.9-30.4c-.1 0 0 .4.2.3 0-.1-.1-.4-.2-.3zm2.2 13.9c-.1 0-.3.2 0 .2.1.1.2-.1 0-.2zM418.1 2.5c.1 0 .1-.4 0-.3-.1 0-.2.3 0 .3zM2.9 142.7c.1-.1 0-.4-.2-.3-.1 0 0 .4.2.3zM416.5.3c.1 0 .1-.3 0-.3s-.1.4 0 .3zM1.6 149.9c.1-.1 0-.4-.2-.3 0 0 .1.4.2.3zm.8 1.1c.1 0 0-.4-.2-.3-.1.1 0 .4.2.3zM421.2 6.2s.2.2.2.1c1.2-.3-.5-1.5-.4-.3 0 .1.2.2.2.2zM97.5 183h-.2v.2h-.2v.4h-.4v.2h.6v-.2h.2v-.2h.2v-.2h-.2v-.2zm-1.6-1.4h-.2v.2h-.2v.2h.4v-.2h.4v-.4h-.4v.2zm0 1.2h.4v-.2h-.4v.2zm-8.9 1.4h.2v-.2H87v.2zm9.9-2.4h-.2v.2h-.2v.4h.4v-.6zm-1.8-.4h-.2v.2h.2v-.2zm-5 2.8h.4v-.2h-.4v.2zm8-.6h-.2v.2h.6v-.4h-.4v.2zm-3 0h.2v-.2h-.2v.2zm-58.8 9.2v.2h-.2v.8h.8v-1h-.6c.1 0 .1 0 0 0zm58-9.2h-.2v.2h-.4v.2h.8v-.6h-.2v.2zm-1-.4v.6h.2v-.4h.1s0-.1.1-.1c0 0-.2-.1-.4-.1zm15.6 3.8h-.2v.2h.2v-.2zm-.8 6.2h.2v-.2h-.2v.2zm316.8-23.6c.4 0 .8-.4.6-1l.1-.2c-1.3-1-1.6 1.2-.7 1.2zM108.5 190v1.2h-.4c0 .2-.2 1.2-.2.6-.2 0-.2.1-.2-.2.2 0 .2 0 .2-.2h-.2V190h.2v-.8h-.2c0-.2 0-.2.2-.2v-.4h.2v.4h.2v.2c-.5 0 .1.2.4.2v.2h-.6v.2c.3 0 .9.2.4.2zm-.2 0h-.2c0 1.4.2 1.1.2 0zm-.2-3.4h.2v-.4h-.2v.4zm.2-1h-.2v.2h.2v-.2zm-10.4-3h-.2v.2h.2v-.2zm1 1v.2h.6c0-.3-.2-.2-.6-.2zm-.8-1.4h-.2v.2h.2v-.2zm1.4-.8h-.2v-.2h-.2v-.2h-.4v.2h.2c0 .2 0 .2.2.2v.2h.2v.2h.4v.2c.1-.1.1-.2.2-.2v-.1h-.4v-.3zm7.8 11.8c.2 0 .2 0 .2.2h-.2v.4h.4v-.2h.2v-.6h-.6v.2zm-8.8-12.4v.2h.2v-.2h-.2zm-10.8 1.4h.2v-.2h-.2v.2zm-45 8.8c1.4 0 1.1-.2 0-.2v.2zm-2-5.2h.2v-.4h-.2v.4zm17 5.5v.3c.1 0 .1 0 .2.1v-.5h-.2v.1zm.1.5h-.2c.1.5.2.4.2 0zm-17.1-5.4h-.2v.4c.1-.1.3-.2.4-.3v-.3h-.2v.2zm3.2 4.2v.2h.6c0-.3-.1-.2-.6-.2zm-3.2.8h.2v-.2h-.2v.2zm-3-23.7v-.4h-.4v-.2h-.2v.4h.4v.2h.2zm-1.2.2v-.6h-.2v.2h-.2v.2h.2v.2h.2zm2.3 2.9c0-.2 0-.2-.2-.2v-.4h-.2v.8c.2 0 .2 0 .2-.2h.2zm66.9-154.4c.1-.1-.1-.4-.2-.2-.1 0 0 .3.2.2zM85.8 184.2h.4v-.2h-.4v.2zm-26.7 6.4h-.2v.2h-.2v.4h.2v1.2h.4v-1.2h-.2v-.6zM87 183h-.2v.2h.2v-.2zm-.8-.8h.2v-.2h-.2v.2zm.6-1.2h.2c0-.4-.2-.6-.3-1.3-.1 0-.1.1-.1.2-.2-.8-.3-1.3-1-1.9-.2.6-1 .1-1.3.8-.4-.2-.1-.2-.6 0-.2-.2 0-.1 0-.5-.4.1-.7 0-.9-.2.4-.6 1.5 0 2-.5-.9-1-3.1-.7-3.8.2.1.9 1.3.1 1.6.7.2 0 0-.1 0-.4.7.2-.1 1.4.7 1.2 0 .2-.2.3 0 .3-1.1.4-2-.9-2.9-.2 0-.1.1-.2.2-.3v-.1c0-.1.1-.1.1-.1 0-.1.1-.2.1-.2-.2.1-.4.3-.5.5-.1.3.2.3.1.6s-.8-.1-.7.3c-.1-.3-.5-.3-.5.1-.2-.3 0-.6-.3-.8 0-.2.3 0 .3-.2-.5-.2-.8-.9-1.3-1.3-.2 0-.2.5.1.3-.1.1-.3.1-.4.2.1 0 .1.1.1.1 0 .1-.3.1-.3 0v.1c-.2 0-.1-.3-.1-.5-.3 0-.3.2-.6.1.1.4.5-.1.4.5-.2-.1-.4-.3-.8-.2l.1 1.2V180c.4 0 .7.1 1 .1.6.4 1.3.6 2.2.7 0 .3.4.2.2.7 1-.2 2.3.1 3.1.5-.2.8-1.5.6-1.7 1-1.1-.2-3.1.5-4.2-.5-.2.1-.3.1-.4.1l.2 1.7h.1v-.2h.4v-.2h.4v-.2h.6v-.2c-.9 0 0-.2.4-.2 0 .3.2.3.2 0h1v.2h.6v-.2h.8v-.2h.4v-.2h.6v-.2h.6v-.2h.4v-.2h.4v-.2h.4v-.2h.4v-.2h.4v-.2h.6v-.2h.4v-.2h.6v-.2h.4c-.1.3-.1.2-.1.1zm-1.6 1.4v.2h.4v-.2h-.4zm.6.4v-.2h-.2v.2h.2zm-13-47c-.1-.2-.7 0-.6.3 0 .1.7 0 .6-.3zm-1.2 16.4c.1.2.7 0 .6-.3 0-.1-.7 0-.6.3zm5.4 33.6h.2v-.4h.2v-.2h-.6v-.2l.1 1h.1v-.2zm-5.6-39.6c.1.1.7 0 .6-.3-.1-.1-.8.1-.6.3zm109.1-37.4c-.1 0 0 0 0 0zM59.6 67.5c.1.2.9-.1.7-.4-.1-.2-1 0-.7.4zm270.7 116.7c-.7 0-.7.6-1.2.6v.4h.3v-.2c.5 0 .6-.2.9-.2 0-.3.2-.6 0-.8v.2zM60.8 141.7c.1.1.7 0 .6-.3-.1-.1-.7 0-.6.3zm2.5-66.1c-.1-.2-.9.1-.7.4.1.1.9-.1.7-.4zM323 185.5c-.2.1-.3.2-.3.4h.3c.2-.3.2-.3.4-.4v-.2h-.4v.2zM61.6 134.2c-.1.4.6.7.9.3-.5-.1-.5-.8-.9-.3zm240.6 9.3c-.1.1.1.4.2.2.1 0-.1-.3-.2-.2zm1.9-65.3c-.1.1.1.4.2.2.1 0-.1-.3-.2-.2zm.4 9c.1-.1.1-.2 0-.2v.2zm17.3 97.5c0 .3-.6.5-.8.8-.2 0-.6.2-.7.5v.2h1.2v-.2h.5v-.4h.4c0-.6.2-.4.2-.8-.2-.1-.5-.1-.8-.1zM67.9 142.5c.1.2.7 0 .6-.3-.1-.2-.8 0-.6.3zm264.9 33.9c-.4.6.4 1.4-.8 1.4-.9 0-1.5.1-2.4.1-.1-.2-.3-.3-.5-.3 0-.5-1 .1-1-.8h-.2v.5h-1.2c0 .2-.1.3-.2.4h-.5c0 .8-.3.5-1.1.5h-1.6v.2h-.5v-1c-.2 0-.3-.1-.4-.2 0-.7.2-1.1.2-1.7.4-.1.3-.1.5-.3v-.5c-.1-.2-.3-.2-.5-.2-.2-.3 0-.1-.2-.2v-.2c-.2-.1-.1-.1-.2-.2s-.1 0-.2-.2c-.5-.1-1-.5-1.3-.1h-.2v-4.1l6.2-13.9c2.1 5.9 4.1 11.4 5.8 16.4h-.5c0 .3.3.3.6.2.1.2.2.4.2.7 0 .5 0 .9-.5.9-.7 0-.6.2-.3.4v.2h.2v-.2h-.2v-.2c.5 0 1.1.3.6.4 0-.1-.1-.3-.2-.2 0 0 0 .2.1.2v.2c.5 0 .3.3.3.8h-.3v.2h.3v.3h-.3v.2l.3.3zm-5.1-1.2h.2v-.2h-.2v.2zm.2.5c0-.1-.4-.1-.2 0h.2zm2.7-4.2h.2c0-.6 0-.2-.2-.3v.3zm-.2.7h1.2v-.2c-.2 0-.5-.3-.5-.1-.3.2-.7-.2-.7.3zm-.8 2.4c.1-.1-.1-.4-.2-.2-.1.1 0 .4.2.2zm-1 .6h-.2c.1 0 .2.5.2 0zm1 .4c-.1-.2-1-.6-1 0h1zm0 .1h.8c-.1-.1-.8-.3-.8 0zm.7.1c-.1.1.1.4.2.2.1 0-.1-.3-.2-.2zm.5 0v.1c2.7 0 0-.3 0-.1zM73.2 122.1c0-.1.1-.1 0-.2.1 0 .1-.1.2-.2v-.1s.2-.1.2-.3c.1 0 .2-.1.2-.1.1-.1.2-.1.3-.1h.1c0-.1.1-.1.1-.1h.2s.1 0 .1-.1v.1c.1 0 .2.1.4.1.1 0 .1.1.2.1v.2h.2v-.1c.1 0 .1 0 .2-.1v.2l-.1-.1c0 .1 0 .1-.1.2s0 .3-.1.4c.1 0 .1.3.1.4l.1.1s0 .1.1.1c-.1.2 0 .6-.1.6.1.2 0 .2 0 .3v-.1 0h-.1v.1h-.1v-.2-.1.2s0-.1-.1-.1c.1.1.1.2 0 .3 0 .1.1.1.1.2v-.1s.1.1 0 .1v-.1h.1s.1 0 .1-.1c.1.1 0 .1 0 .2-.1 0 .1 0 0-.1-.1 0-.2.2-.1.2-.1 0-.2.1-.2.1h-.1c0 .1-.1 0-.1.2h.2c0 .3-.2.4-.5.5-.2 0-.5-.1-.7-.1v-.2s-.1 0-.1.1v.1s-.2-.1-.1-.1h-.1c0-.1-.1-.2-.1-.3-.2-.1-.5-.5-.4-.8 0-.2 0-.4-.1-.5 0-.2 0-.2.1-.4l-.1-.1v-.1-.1h.1zm2.4 1.2s.1-.1 0-.2c0 .1-.1.2 0 .2zm-.1.1c0 .1 0 .1 0 0 0 .1 0 0 0 0 .1 0 .1-.1.1-.1v-.1c-.1.1-.1.2-.1.2zM333 173.9c-.1-.2-.1-.4-.2-.6v.4c.3.2.1 0 .2.2zM63.1 65.5c-.1-.2-.9.1-.7.4.1.2.9-.1.7-.4zm270.2 109.1c0-.1-.1-.3-.1-.4h-.1c-.1.2 0 .3.2.4zM80.4 141.7c-.1-.1-.7 0-.6.3.1.2.7 0 .6-.3zM66 135.6c.1.1.7 0 .6-.3-.1-.1-.7 0-.6.3zm235.3-43.7c-.1.1.1.4.2.2.1 0-.1-.3-.2-.2zM68.9 76.8c.1-.5-.8-.9-1.1-.3.6.2.6 1 1.1.3zM293 139.5c-.1 0-.3.2 0 .2.1.1.3-.2 0-.2zm-1.4 15.4c-.1.1.1.4.2.2.1-.1-.1-.4-.2-.2zm-.5-40.8c-.1.1.1.4.2.2.1-.1-.1-.4-.2-.2zm1.9 26.4c-.1 0-.3.2 0 .2.1 0 .3-.2 0-.2zm40.1 34.2c-.3 0 .4.7.4.7h-.4c0 .8-.1.8.8.8v.2h-.8v1.2h1.3c-.3-.9-.7-1.8-1-2.8-.2-.1-.3-.1-.3-.1zm-38.4-25.5c.2.2.8-.2.5-.5-.4-.3-.8.3-.5.5zm-4.1-1.6h-.5c-.8.8 1.5.8.7 0 0-.1-.1 0-.2 0zm-3.7-17.5c.1-.1-.1-.4-.2-.2-.1 0 0 .3.2.2zm-1.2 13.9c.4.7 2.6 0 1.4-1.2-.8-.8-1.9.4-1.4 1.2zm3.3-17.9c-.1.1.1.4.2.2.1 0-.1-.3-.2-.2zm8.7-12.3c-.1.1.1.4.2.2.1 0-.1-.3-.2-.2zm1.9-.2c-.1.1.1.4.2.2.1 0-.1-.3-.2-.2zm-3.5 10.8c-1.2 0 1.1.8.2 0h-.2zm3 14c-.1.1.1.4.2.2.1-.1 0-.4-.2-.2zm.6-52.2l.8-.8-.1-.5c-.3.5-.5.9-.7 1.3zm-.6 65.1c-.1.1.1.4.2.2.1 0 0-.3-.2-.2zm-1.4-48.8c.1-.1-.1-.4-.2-.2-.1 0 .1.3.2.2zm-.7 53.3c-.6.5 1.3 1 .5.2-.1 0-.3-.4-.5-.2zm1.2-63.9c-.1.1.1.4.2.2.1 0-.1-.3-.2-.2zm2.5-5.7l-.1-.2c0 .1 0 .2.1.2zM191 129.1c-.1 0 0 .1 0 .2.1 0 0-.1 0-.2zm72.8 34.8c.1-.1.2-.3.2-.2.1-.2 0-.3-.2-.2v-.2c-.4.2-.3.4 0 .6zm-223.5 6.4h-.2v.2h-.2v.2h.2v.2h.4v-.4h-.2v-.2zm222.9-7.8c-.1-.2-.8-.2-.6 0h.2c.3.4.3.6.8.2-.2-.2-.1-.2-.4-.2zm-232.4 6.2h.2c0-.2 0-.2-.2-.2 0-.3-.2-.3-.2 0h-.2v.4h.4v-.2zm233-4.8c-.1 0-.1.1 0 0zm157.8-5c.3-.1 0-.2 0 0zm-174 4c.3-.3-.2-.2-.2-.2v-.2c-.3.3 0 .7.2.4zm.6-1c-.1-.1-.3.1-.2.2.1.1.3-.1.2-.2zm-.2.6c.1.1.3-.1.2-.2-.1-.1-.3.1-.2.2zm12.8 7.2v.2l.8-.2c0-.3-.8-.4-.8 0zm130.6 3.7v-.2h.2c-.1-.2-.7-.6-.7 0-.7 0 0 .2-.8.2v.3c.4 0 .4-.1.8-.1v-.2h.5zm30.9-13.8h1.5v5h-4.1c0 .3-.1.3-.3.4v4c-.6 0-.8-.1-1-.4-.8 0-1.3-.8-2-.8 0-.2-.1-.3-.2-.4-.4-.1-.5 0-.9-.1-.1-.3.2-.2-.3-.2 0-.2-.1-.3-.2-.4-.4-.1-.5-.2-1-.2-.2-.3-.2-.3-.8-.3 0-.2-.1-.3-.2-.4-.5 0-.6-.2-.8-.4-.5-.1-.7-.2-1-.5h-.4c-.1-.1-.4-.5-.6-.4-.1 0-.6-.3-.7-.3-.4 0-1.3-.6-1.5-.9-.6 0-.3.2-.9.2 0 .3 0 .4-.1.7-.5 0-1.4 1.1-1.4 1.5h-.4v.2h-.2v.4c-.1 0-.4 0-.5.1v.4h-.4c0 .5.1.3-.1.4 0 .3-.6.6-.9.6 0 .8-.2.1-.2.8h-.3v.4c-.5 0-1.5 1.3-1.8 1.8h-.2v.4c-.2 0-.5.4-.7.6-.2 0-1 .9-1 1.2-.3 0-.6.3-.8.4 0 .4-.6.9-.8 1.2h-.4c0 .3-.3.6-.4.8h-.1s.1 0 0-.2c-.3-.2-.4-.8-.4-1.2h-.2v.2c-.5 0 .1 1.3.2 1.4v.5h-.4c0 .3-.1.3-.3.4v.4c-.4.2-1.2.2-1.4.5-.6 0-.8-.1-1 .2-.2 0-1.1-.2-1 .2 0 .1-.5.1-.5.1-.5 0-.3-.3-.3-.7 0-.3-.2-.1-.2-.4.1-.9 0-1.9 0-2.8.6 0 .3 0 .6-.3h.4v-.2h.2v-.2c.7 0 .9 0 .6.4l-.2.1h-.3v.2h-.2v.2h.2v-.2h.3v-.2h.2v-.1h.4c0-.5.7 0 1 0 .3 0 .3-.2.8-.2 0 .3-.1.1-.2.3.6 0 1-.2 1.2-.5.8 0 .8-1 .4-.4-.3.2-.1 0-.2.2-.6-.1-.6.2-1.2.2.2-.3.6-.4.8-.7h.4c0-.9-.5 0-.6 0-.6-.1-.7.4-1.4.4.3-.3.8-.4 1-.8h.4v-.2h.3c0-.4.7-.3-.3-.4-.1 0-.2.4-.3.4-.9 0-1.3 1-2.2 1v-.4c.6 0 .7-.2 1.2-.3v-.2c.4 0 .4-.4.3-.4-.4 0 .6.3-.6.2-.1 0-.2.1-.1.2-.6 0-1.5 1.3-2 .6h.3c.2 0 .2-.1.4-.1v-.2h.2v-.4h-.2c-.2.2.3.3-.3.2-.2.3 0 .1-.2.2 0 .1-.2.3-.2.3h-1.2v-2c-.4 0-.6-.4-.6.4v1.4h-1.4c-.2-.3-.2-.4-.2-.9h-.3c-.1-.1 0-.6-.2-.8 0-.6-.9-.1-.9-.3.1-.3-.4-.3-.6 0-.7 0-.9.1-1.2.6h-.2v.2c.2 0 .3.1.4.2 0 .4-.2.3-.2.8h.4v-.2c.4 0 .2.2.3.4.3 0 .7-.1.9.1h-.4v.2h.5c0-.3 1.5-.5.9 0 .1.3-.1.4-.4.2v-.2c-.7 0-.4.1-.2.2v.4c-.3.1-.4.1-.6.3h-.2v.4c.3 0 .4-.3.5-.4.5 0 .3.1.4-.1.3 0 .6-.5 1-.7.1 0 .2-.3.3-.4.5 0 .7.2 1.4.2 0 1.6.3 3.2.3 5.2-.3.1-.3-.1-.3.2-.7 0-3.1.4-.9.4.2 0 .9-.3 1-.4h.2v.2h.2v3.2h-.2v.2c-.3.2-.5.4-.8.6v.4c-.6 0-1.5 1.5-2 1.8v.4c-.2.2-.3.2-.7.3 0 .7-1.5 1.8-2 2.1-.1.4-.2.5-.3.8-.3.2-.1 0-.2.2-.4 0-.7.4-.7.8.7 0 .6-.2 1.2-.2 0 .5.1.4-.6.4v.5c.4 0 .2 2.2.2 2.6h-.4v-.2c-.2-.2-.1 0-.2-.2-.4-.1-.2 0-.3-.2-.5 0-1-.5-1.2-.8-.7 0-.2-.1-.8-.2.1-.5 0-.4-.2-.6 0-.6.2-.6.2-1 0-.9-.2-.9-.7-1.3 0-.2-.3-.5-.6-.7-.2.3-.4.4-.4.9-.8 0-.5 2-.5 2.5-.4 0-.8.7-1 1-.9 0-1.8 1.4-1.4 2h-.7v.2c0 .2-.1.3-.1.5h-5.4c0-.7-.6-.4-1.2-.4v.2c-.3.2-.1 0-.2.2-.3.2-.1 0-.2.2h-1.4c0-.8-.2-.8-1-.7-.2 0 .1.4-.5.4-.1-.4-.4-.9 0-1.2 0-.4-.6-.4-.6-.1 0 .1.1.6 0 .7-.1.1-.6-.1-.7-.1.2-.2.2-1.6.2-1.9h-.2c0-.1.1-.4 0-.5-.2-.3-1.2-.4-1.2-.5-.1.1-.8.9-.9.9.1.1.6 1.3.7 1.4.1.1.6.2.7.2l.2.2v.1c-.5.1-.3-.1-.4.1h-.2c0 .2-.1.3-.2.4-.2-.1 0 0-.1-.2-.4 0-.6-.4-1-.3-1 .1-2.1.1-3.2.1-.1-.4 0-.2-.2-.3v-.2h-1.2c0 .8 0 .6-.7.6 0-.7.1-2.5-.3-2.8 0-.6.1-1-.2-1.2v-.3c.8 0 .5-.3 0-.4 0-.2-.1-1.6 0-1.6.2-.1.3.1.4-.1h-.4c0-.4-.2-.1-.2-.4-.1-.1-.2-.1-.3-.1v1c-.8 0-.5.3 0 .4v5.5c-1 0-2.3-.2-3.2-.1 0-.1-.1-.1 0-.2h-1c-.4 0-.2 0-.4.2-.9 0-1.5.1-2.4.1-1.1 0-.4-1.2-.4-1.9 0-.5-.1-.9-.1-1.3 0-.3.3-.6.3-.8h1.6v-.2c.3.1.4-.1.2-.6-.3-.2-.2-.3-.4-.4.1-.7-.6-1.1-.6-1.8 0-.5-.4-1.2-.7-1.4v-.5c-.3-.2-.2-.3-.4-.4 0-.8-.3-1.9-.8-2.2.1-.5-.3-1.3-.6-1.5 0-.7.1-.4-.2-.7v-.5c-.3-.2-.2-.3-.4-.4 0-.3 0-.7-.1-1h-.2v-.5h-.2c0-.6-.2-.6-.2-1h-.4c0 .4-7.1.3-7.4.8-.7 0-1.3 0-1.9.1l-.6-2.3c.2 0 .3.1.3.2h1.1c.7 0 .5 0 .5-.7h-.5l.3.3c.1.2-1.2 0-1.8 0l-.1-.3h.4v-.2h-.5c.2-.1.2-.4-.1-.4l-.5-1.7c.7.1 1.4.1 2.2.1 0-.3-1.6-.3-2.2-.2l-5.8-21.4L340 125v-.3c.6-2.1.8-4.5 1.4-6.5l2.8-2.8.8-1.9h.5l3.1-7c-.1-.2-.2-.3-.3-.5l26.4-59.7H341l4.7-1.6-14.4.2-10.6 1V23l-19.6 55.8-.9-.1-1 3.1.4 1.3-1.5 4.3-.6-.4-1.6 4.8.8-.2-4.9 14.1c.3 0 .6.2.7.3.1.1.5.7.2.9-.5.5-1 0-1.2-.5l-2.1 5.9c.2 0 .4-.1.5 0v.5s.5-.4.7-.3c-.1 0 0 .8 0 .7 0 .1.3 1.2.2 1.6 0-.1-.1.4 0 .3-.4.5-1.7.9-2.6.7l-1.8 5c.2.5.2 1.1 0 1.6 0-.1-.5.3-.7.4l-1.2 3.5v20.9c-2.6 6.8-4.3 11.3-4 11.4l4-7.8v7.3c.7.2 1.6 1.2 1.2 2.3-.2.5-.7.5-1.2.5v9.6l-.1.1c0-.8-.1-.8-.2-1.2.1.6-.1 1.6-.2 2.2 0 1-.1 2-.1 2.9v12.3c0 .3 0 2.1.1 3.3-.6.1-1 .1-1 0-.9-.6-.7-4.4-.2-5.6.3-.8 0-2.3 0-3.2 0-1 .2-1 .2-2.2 0-2.5.2-4.3.2-6.8l-.4-.2c-.3-.5-1.5-.6-2.7-.5l-.1-1.3-.4-.7-.1-.2h0l-.1-.2c.1 0 .2-.1.3-.2.1-.1.1-.1.1-.2l.2-.1c0-.1-.2-.1-.2-.2 0 0-.1 0-.1-.1h-.1v.1c-.1 0-.2.1-.3 0-.1-.1-.2-.2-.2-.3v-.1c-.1-.1-.3 0-.4 0l-.1-.2-.8-.4s.1 0 .1-.1-.1 0-.1-.1c0 0-.1 0 0 .1l-.3-.2c0-.1 0-.1-.1-.2 0-.1-.2-.2-.3-.3-.1-.1-.3 0-.4 0l-.3-.2-.6-.2.4-1.6.3-1.1-.4-1.9-1.8-1-1.8.4-.9 1-.3.7.4 1.9-.2.9-.4.5-2.4.8c-.4 1.8-.8 3.7-1.2 5.6v-4.7l-.2.3-1.7 4.8-.5 3.6.5 4 .5 1.6h.2l.2 1.9c-.8 0-.6.2-.9-.2h.6c0-.1.1-.4.2-.2-.3-.6-.4-.4-.6-1.4-.3-.2-.3-.2-.8-.2-.2-.5 0-.3-.2-.6h-.6c0 .6-.4.2-.6.6-.5.3-.3.9-.8 1.2v.4h-.8v.6c.3.2.1 0 .6.2-.2.3.2.2-.2.4 0 1.3-.3.9-.6 1.6.1-.2 0 .5 0 .6.4.2 0 .1.2.4.5 0 .4.1.6.4-.3.2-.3 0 0 .2v-.2h.2c.1.1.6 1.2.4 1.4-.2.2-.9-.7-1.2-.2-.6-.1-1.5 0-1.8-.4h-.4c0-.5-.1-.7-.2-1 0 0 .2.1.2-.2 0 .1-.2-.1-.2-.2-.6 0-.6.1-.8.4-.4-.3-.4-.6-1.2-.6-.2.7-.6.8-.6 1.8h-.4c-.2-.3-.2-.3-.2-.8-.3.1-.1 1.3-.6.6-.5 0-.4.3-.6 0h-.4c0-.8.1-1.7.4-2.4h.1c.1-.1.1-.3.2-.4.3-.4.6-1.5 1-1.8l-.2-1.2c.3-.1.1-.1.4-.2 0 0-.1.2.2.2-.1 0 .2-.2.2-.2.7-2 1.6-4 2.5-5.9.4-.8.7-1.5 1-2.3.6-1.3 1-3 1.8-4.2.7-1 1.8-3 1.8-4.4.1-.1-.3.2-.2.2-.1 0-.3-.1-.4-.2 0-.5-.1-.4-.4-.6h.1c-.1-.4-.2-.4-.2-.9h1c.1.2.2 1 .4 1.2.1.1.2-.1.2-.2.4-.2 0-.1.2-.4.6-.3 1.4-2.8 1-3.4h-.4c-.3.5-.2.4-1.2.4-.2-.4-.1 0-.4-.2l-.2-.4c-1.3 0-1.5-.2-2.6-.2 0 .7.3.7 0 1.2h-.6v.4h-.4c-.2-.4-.5-.4-.8-.6 0 .9-.3.9-.6 1.4.8.4 1.4.4 2.6.4-.2-.2-.6-.2-.8-.4v-.4h.4c.1.1.7.5 1 .2.1-.1-.4-.5-.4-.6h.4c.4.6.1 1-.2 1.4.6.1.6-.1.6.6-.4.3-.4.9-.8 1.2 0 1.1-1 1.5-1 2.4 0 .4-.7 2.1-1 2.4-1 1-1 3-2 4-.1.1-.2.3-.3.5v.1s0-.1.1 0c-.2.5-.3 1.1-.7 1.5-.5.5-.3 1.7-.8 2.2-.9.9-1.6 3.1-2 4.4-.6-.5-.7-1.2-1.2-1.8-.2-.2-1.3-1.7-1.2-2 .1-.5-.9-1.7-1.2-2-.5-.5-.8-1.6-1-2.4-.9-.6-1.1-1.9-1.8-2.6-.4-.4-1.6-2.5-1.6-3 0-.8-1.3-2.5-1.8-3-.4-.4-.4-1.1-.8-1.6-.1-.2-.7-1-.8-1.2 0-.2.1-.3.2-.4 3.6 0 6.8.2 10.6.2-.6-.8-.4-1.4-1.2-2-.2-.1.2-.3.2-.2 0-.2-.1-.2-.2-.4h-1c-.4-.6-1.4-.4-2.2-.4v.6c-.5 0-1.2-.2-1.4-.2-.4 0-.8.3-1 .6-.5-.3-.5-.7-.8-1.2-.6 0-1.6-.2-1.8-.2-.7-.1-2 .1-3.2 0-.4 0-1-.2-1.6-.2v-33.7l-7-19.8v-5.3c-.7-.2-1.4-.3-2-.5L204.8 29l11.5 60.1-.7-1.8 1.4 5.1 2.9 15.4.9 7 .5.8 1.6 12.7 1.1 8.9 2.6 5.8 3.1 16.5c-1.8 0-3.5.1-5.2.4v-.6h-.4v.6h-.2c.2-4.2.3-8.2.5-12-.2-.1-.5-.2-.9-.3l-.8 12.4h-1.4c-.1 1.5-.4 3.8.6 4.6 0 .5.1.5.5.6l-.8 12.9-.1-.1v1.2h-.1c-.1-.1-.2-.2-.3-.2 0 .1.1.1.1.2h-.1c.1-.2 0-.3-.2-.2v-1h-.2v1.2h-.4c-.7-1-1.6-2.1-2.2-3.2h-.8c.3.4.1.7.2 1.4-.7 0-1.4.1-2.1.1-.3-.4-.6-.9-1.1-.8-.1.3 0 .6.2.9-1.5 0-2.9.1-4.6.1-.5 2.8-.1 6.1 0 9.4h-.3c-.1-.5-.3-.9-.3-1.5-.4.3-.2.1-.2 1-.2.1-.3.2-.4.4l-.3-.1c.1 0 .2.1.3.1-.2.2-.3.4-.6.6-.2.2-.2-.2-.2-.2-.3.1-.1.1-.4.2.2.3.1.6.6.6 0 .8.2 1.1.2 1.6.5.3.1.8 1 .8.2.5-.3.8.4.8v-.3l.1.1c.1-.2 0-.5-.1-.7 0-.6-.1-1.2 0-1.7.1-.7 0-1.2-.1-1.6.1 0 .2.1.3.1v4.2c-.9-.1-1.9-.1-2.9-.2 0-.1-.1-.1-.1-.1v-.2h1.3v-.9h-1.4s0-.1-.1-.1c-.2.1-.3 0-.2-.2H205.9c-.1.2-.1.3-.1.5-.1-.1-.1-.2-.2-.2-.1.3-.2.7 0 1.1v.1c-1.8-.1-3.7-.1-5.7-.1.5-1.6.8-5.2.9-5.2-.1 0-.1-.5-.1-1.2h.1v-.9c.1-1.1.3-2.4.4-3.5h1.6v-.9h-1.4c.1-.8.3-1.3.3-1.4h.6c.1.3.1.3.4.4-.1.2 0 .3.2.2.2.3 0 .3.2 0h-.2c.1-.2 0-.3-.2-.2 0-.6-.3-1.2-.6-1.6-.7 0-.5.2-.8.6h-.6c-.3-.6-.5-1.6-1-2 0 .6.2 1.3.6 1.6.1.9 0 1.7-.1 2.4H199v.9h1c-.2 1.4-.6 2.7-.8 4.3-.2 1.9-.1 4.3 0 6.6-1.7 0-3.4 0-5.2.1-.2-.1-.5-.1-.8-.3-.2-.6-.3-.4-.6-.8h-.7c.1-.2.1-.4 0-.6-.1-.1-.2-.1-.2.1-.1.2-.1.4 0 .6h-.1c-.3.4-.6.5-.6 1.2h-.1c-.1-.1-.5-.3-.6-.4h.6v-.9h-1.8v.7c-.2 0-.4-.1-.5-.1.1 0-.2.2-.2.2v.4l.1.1h-.6c0-.1-.1-.2-.2-.1v-1h.4v-.4h-.4c.1-2.4.2-6 .2-6l-.1-.3v-.1c0-.2 0-.2-.1-.3v-.2s.1-.1.2-.1v-.4h-.3l-1.7-8.8-.4-1.9c0 .1.1.1.2.1s0-.2.1-.2c0-.2 0-.7-.4-.6v.1-.2l-1.9-8.9 3.5 1.8V160l-1-5.6h.2c.6 0 1.1-.5 1.3-1 .1-.5 0-1.2-.4-1.5-.5-.3-1-.3-1.5-.1l-.5-2.8.8-1.6 1.4 4.4 1.9-.2h.4s1.5-4.8 1.7-5.7c.1-.8.1-4.3.1-4.3l.2-2.2h.1c.1-.1.3-.1.3-.3.2-.3-.2-.6-.4-.7v-.3h.1c.2-.1.4-.1.4-.4.1-.3 0-.6-.3-.8-.1 0-.1-.1-.2-.1v-.3c.1.1.2.2.3 0 .1-.1 0-.2-.1-.2h-.2v-.6c.2 0 .3-.1.4-.2.1-.2-.1-.5-.4-.6l.7-9.4.1-.1c0-.1 0-.2-.1-.3l.2-2.8c.1-.2.1-.4.2-.5v-.4c-.1-.1-.2-.3-.4-.4l-4.1-8.3c.1-.2.1-.5.2-.8 0-.3-.4-.5-.6-.6-.1-.1-.2-.1-.3-.1l-2.2-4.4-1.5-.4c.1-.2.2-.5.3-.7 0-.8-.7-1.3-1.3-1.5-.6.1-1.4.2-1.6.9 0 .2-.1.4.1.6l-3.8-1c-.1.3-.6.2-.6.7-.3-.5-.7.1-.9.3-.4-1-1 .3-1.7 0-.1-.2.1-.3-.1-.6-.5.1-.4-.1-.9.2-.3-.4.2-.4.1-.7-.6.3-.7-.4-1.1-.5 0-.3.4-.4.4-.7-.1-.2-.1-.3-.2-.5-.3.1-.6.3-.7-.1.6-.3.9-.7.9-1.4-.3-.2-1.4.9-1.8.6-.2-.4.8-.3.7-.6-.1-.2-.2-.3-.3-.3-.6.2-.6.7-1.3.8 0-.6.7-.8.9-1.3-.4-.1-1 .2-1.5.1-.3-.4.4-.3.5-.6.1-.1 0-.2 0-.4-.5-.2-.8-.4-.9-.5-.3.1-.6.2-.8-.2.3-.1.5-.2.8-.3v-1.4c0-.1-.1-.1-.1-.2l.1-.1v-.6l-4.2-5-5-1.2-3.7 2.8-2.6 2.6.1 1.1 1.1.1-.1 3.8.9 3.7-1.6 1.7-1.4 1-1.1 1.8-1.4 7.2s-4.4 15.6-4.3 16.5c.1 1-1.4 9.6-1.4 9.6l1 .3.2-2.4 1 .4c-.2.8-.4 1.5-.6 2.3l.7.9v7.6l1.4 7.1-.5 4.6.7.1 2.4-1.4-1.2 2.2-.7-.1-1.7 3.2v.2l4 2.9.8-.5v2.6c0 1.3.2 3 .2 4.6 0 1.2-.3 3.4.2 4.2.6.4 1.9.3 2.9.2l.3 1.2c-.6 0-.6 0-.8-.4h-2c-.2-.4-.2-.1-.6-.4 0 0 0-.4-.2-.2s0 2.1 0 2.4h.6c.2-.3.2-.2.6-.2.2.3 0 .1.2.6.6.3.6 1 .6 2-.7 0-.9 0-1.2.4-.2.2-.2.4-.4.6-.5.3-.2.7-.2 1 0 .5-.6 4.3-.3 5.6-.9-4.8-1.5-9.7-1.5-14.5h-3.6v-.6c.1 0 .4 0 .2-.2s-1.9 0-2.2 0v.2h-.8v.8h-.6v.2h-4c0-.2 0-.2-.2-.2v.2h-.6v-.2h-.4v-.2h-.6v-.2h-.6v-.2h-.6v-.2h-.2v-.2h-.4v-.2h-.8v-.2h-.6v-.2h-.4v-.2h-.4v-.2h-.6v-.2h-.6v-.2h-.2v-.6h-1.6v-.2h-.2v-.8h-.2v-.6h.2v-1.6h-1v.2h-.2v.8h.2v.6h-.2v.2h-.2v.2h-.6v-.2h-.4v-.2h-.2v-.4h-.2v-.2h-1.6v1h-.6v.2h-.4v.2h-.6v.2h-.4v.2h-.4v.2h-.4v.2h-.4v.2h-.4v.2h-.4v.2h-.6v.2h-.2v.2h-.4v.2h-.4v.2h-.6v.2h-.6v.2h-.6v.2h-.6v.2h-.4v.2h-1v.2h-1v-.6h.2v.4h.2v-1h-.8v.2h-.6v.2h-.2v.8h.2v.2h.2v.2h-.2v.2h-.2v.2H112v.2h-.8v.2h-1.4v.2c-.2 0-.2 0-.2.2h-.2v.4h-.2v.2h-.4v.4h-.2v.2h-.2v.2h-.2v.2h-.2v1h.2v.1c-.1-.1-.3-.1-.3 0s.2.2.3.1h.2v.4c-.2 0-.2 0-.2.2h.2v.2h.2v.2h-.2v.6h-1v-.2h-.6v-.2h-.4v-.2h-.6v-.2h-.2v-.2h-.6v-.2h-.2v-.2h-.6v-.2h-.6v-.2h-.4v-.2l-.1-1.6c.4.2.7-.1 1.3.1.3.1.2.5.6.4-.2 0-.3-.7-.2-.7 0 0 .6.1.7.1 1.3-.6-.5-.7-.2-1.4l.1.2c0-.1.8-.8.8-.9 0-.2-.7-.7-.9-.8 0 0-.5.3-1.4.2.1 0 .2-.3 0-.3s-.6.2-1 .1v-.3l-1.3-17.8-1 21c-.2.1-.4.2-.5.4h-.1v-.2h-.2v-.2h-.2v-.4h-.2v-.8H99v-.4h-.8v.8h-.4c0 .3-.2.3-.2 0h-.2v-.2h-.2v-.4c-.2 0-.2 0-.2.2h-.2v.2h-1.6v.2h-2.4v.2h-3.2c-.2-.4-.2-1.1-.1-1.5-.1 0-.3 0-.3-.1-.1-1.8-2.7-.1-3.5-.9-.1-.4.2-.3.1-.7-.5 0-.3-.4-.6-.3-.1-.8 0-.7.3-.7 0-.8-.6-1.6-.3-2.2-.7-.6-.4-2-1-2.4.3-.1.3-.6 0-.7-.3.2.1.3-.1.3-.2-.2 0-.3 0-.6-.8-.3-.9-1-1-1.4-.2.1 0 .4-.2.5-.1-.1-.2-.3-.1-.6-.5.2-.7-.2-1 0-.2-.8-1-.5-1.3-.2-.3-.1-.2-1.2-.5-.9.1.1.3.6 0 .6-.2-.5-1.1-.1-.9-.9-.2.1-.2.4-.4.5-.2-.1 0-.6-.2-.6-.3.8-1.4.8-2.1.8-.3.4-.9.1-1.3-.1l-1.6-15.5-1.2-1.6.1-5.9c.1-.1.2-.3.3-.5l-.1-1.2s0-.3-.1-.9h1.4c0 .2.1.5.3.6.5.4 1.4.2 1.9-.7h1.1c.1.5.3 1 .4 1 .9.5 2.1-.7 2.4-1l.1-.1c.6 0 1.1 0 1.3-.1.3 0 .5-.1.7-.2l.7-2.1c0-.3 0-.6-.1-1 0-.2-.1-.7-.1-1.4.8-.3 1.5-.9 1.5-1.5.1-.9-.3-1.5-.6-1.8 0 0 0-.1-.1-.2-.1 0 0 0 .1.2 0 .1-.6.2-.9.2l.1 1.3L80 141l.4-4.5 1.4-4.2.1.1c-.1-1.4-.3-2.9-.5-4.6.3-.1.9-.3 1-.4.3-.8-.6-2.1-.5-2.5 0-.1.1-.2.1-.3.6.1.3-.4 0 0-.1 0-.2 0-.3-.1-.2-.1-.1-.7-.3-.8-.2-.1-.4-.2-.5-.3-.9-8.7-2-19.5-2.9-28.5-.1.5-.2 1-.3 1.6l-.8-12.4c-.4-4.4-.7-7.4-.7-7.9 0-.7-.2-1.2-.4-1.7-.3 0-.5 0-.8-.1l.4-.6c-.5-.7-1.3-1.2-2.4-1.5-.8-.2-4.5-1.6-8.8-3.3-.3-2.4-.4-4-.4-4.4-.9 0-1.6 0-.7-1.6l.6-.4c0-.5-.1-.9-.2-1.3-.2-.1-.4-.1-.5 0 .2-.2.3-.2.5-.3-.2-.7-.7-1.3-1.6-1.4-1.2-.2-2-.2-2.4.2.1.1-.1.2-.2.2 0 0 .4.2.5.2 0 .2.1.6-.2 1-.1.1-.3.2-.6.3.1 1.2.3 3.9.4 5.7-4.4-1.7-8.6-3.3-10.9-3.9l-.9.3.1-.5c-.2 0-.3-.1-.4-.1-.2 0-.3 0-.5-.1l-.1.5-2 .7c-.3 1.1 0 2.9.3 4.9.1 0 .2 0 .2.1.1.1 0 .3-.2.4 0 .3.3 2.7.6 6.5l-.3 2.8-2.3 1.3c.2.2.6.3.8.4l1.7-1.6 1.6 19.6.4-1.1-.1-5.9c.6 6 1.2 12.6 1.8 19l.3-1.1 1.6 19.9-.1.8c.6 5.9 1 10 1 10.5v.2l.1-.2c.2.3.4.5.6.8l.1 1.1c.4.3.8.4 1.4.5.4 0 2.3 0 4.8-.1.2-.1.3-.3.4-.3.2-.1.3.1.3.3h.4c1.2-.7 1.5-1.4 1.6-1.4.5-.1 2.1 0 2.3.3 0 0 0 .5-.1 1 .9 0 1.8-.1 2.8-.1l3.7 32.1-.1.1h.1l.1.7h.1v.5c.5.1-.2-.3.2-.3 0 .3.2.3.1.6h-.3c0 1 .3 1.4.7 2.2h.1c-.2.2-.3.4-.5.5l.1 1c.5.2.7.1 1 .7.1.1-.1.4-.1.4l.1.1-.1.1c-.2.2-.1 1-.4 1.3h-.2l.8 7.2H72c.1-.2-.5-.8-.8-.5-.2.2.3.5.4.6h.3v.3h-.2v.6h-.2v.2h-.2v.2h-.8v.2h-.2v.2h-.1-.1c-.1 0-.1.1-.2.2h-.2v.2h-1.8v.4h-.2v.2h-.8v-.2h-1.2c0 .3-.2.3-.2 0h-.2v-.4c-.3 0-.2.1-.2.4h-2.2v-.2h-.2v-2.2h.2v-.6h-.2v-.2h-.2v-2.6h.2v-2.2h.2v-.2h.4c0-.2 0-.2-.2-.2v-.4h-.2v-.4h-.2v-.2h-.2v-.4h-.2v-.4h-.2v-.4h-.2v-.2h-.2v-.2h-.2v-.2h-.2v-.2h-.2v-.2h-.4v.2h-.8v.2h-.6c0 .4.7.2 1 .2v.2h-.6v.2h-.2v.2h-.2v-.4c-.2 0-.2 0-.2.2h-.2v.2h-.2v.2h-.4c0-.1-.3-.2-.3 0 0 .1.3.2.3 0v.4h-.2v.2h-.2v.4c.2 0 .2 0 .2-.2.2 0 .2 0 .2.2h.2v.2h-.4v.1c-.1-.1-.3-.1-.3 0s.2.2.3.1v.1h-.4c0-.2 0-.2-.2-.2v.2h-.2v.2c-.4 0-.1.2.2.2v.2h.2v.2h.4v.4h.6v-.2c.2 0 .2 0 .2-.2h.2v-.4h.2v1.6h-.6v-.2h-.2v-.2h-.4v.2h-.6v.2c.2 0 .2 0 .2.2h-.4v.4h.2v1h.2v.2h.4v-.2c.2 0 .2 0 .2-.2h.2v-.4h.6v.6c.3 0 .3.2 0 .2v1.8h-.4v.2h-.8v-.2h-.6v.2h-.6v-.2h-.2v-.2h-.4v-.2h-1v.2h-2.2v.2h-1.8v-.1c.1 0 .2 0 .2-.1s-.3-.2-.3 0h-.1v-.6h-.8v.6h-.6v.2h-.4v-.2h-2v.2h-.4v.2h-.2v.2h-.8v.6h-2.8v.2h-1.4v.2h-.6v-.6h.2v-.8c.2 0 .2 0 .2-.2h-.2v-.5c.6.2 1.2-.2 1.6-.6.4-.4-.6-.6-.3-1.6.1-.4.6-.4.6-.8 0-.2-.5-.4-.6-.4-.1-.1.3-.2-.1-.2v.3h-.1v-.4h-.8v.2h-1v.2h-.6v.2h-.2v.2h-.2v.2h-.2v.2H39v.4h-.6v-.8h.2v-.2h.2v-.2h.4v-.6H39v-.8h.2v-.4h.2v-.2c.4 0 1-.2.2-.2v-.4h.2v.2h.4v-.2h-.4v-.2c.4 0 .4.1.4-.2h.2v-.4h.8c0 .2 0 .2.2.2v-.2h.2v-.4h.4v-.4h-.6v-.4h.4v-.6h.2v.2h.6v-.4h-.4v-.2c.4 0 .2-.5.2-.8.2 0 .2 0 .2-.2h-.2v-.4h.4v.2h.4v-.2h-.4v-.2h.4v-.4H43v-.2h-.2v-.4h-.4v-.2h-.8v.2h-.2v-.6c-.2 0-.2 0-.2.2h-.4v-.6h.8v.2h.2c0 .6.2-.4.2-.6h-.8v.2H41v-.6h.6v.2h.8v-1h-.2v-.4H42v-.2h-.4v.2h-.2v.2h-.2v.2H41v-.6h.4v-.6h-.2v-.2H41v-.2h-.2v-.2h.2v-.2h.2v-.2h.4v-.4h-.2v-.2h-.2v-.6H41v-.4h-.4c0-.3.1-.4-.2-.4v-.4h-.6v-.2h-.4v.2h.2v.2c.2 0 .2 0 .2.2h-.6v.4H39v-1.4c.2 0 .2 0 .2.2h.8v-.6h-.2v-.4h-.2v-.2h-.4c0-.4-.2-.1-.2.2.2 0 .2 0 .2.2h-.8v-.2h-.2v-.2H38v-.6h.2v-.2h.2v.4h.4v-.4h-.4v-.2H38v-1h-.4v-.8c-.2 0-.2 0-.2.2h-.2v.4h.2v.4c-.2 0-.2 0-.2-.2h-.4v-.4h-.2v-.6c-.3 0-.2.3-.2.6H36v-.2c-.2 0-.2 0-.2-.2h.2v-.2h.2v-.8h.4v-.6c-.2 0-.2 0-.2.2h-.2v.2h-.4v.4h-.2v.2h-.2v.2h-.2v-.6h.2v-.2h.2v-.4h.2c0-.3-.1-.2-.4-.2v-.2h-.2v-.2h-.6v.6h.2v.2h.2v.2c.2 0 .2 0 .2.2h-.4v.6h-.4v-.2c-.3 0-.3-.2 0-.2v-.4H34v.2h-.2v.2h-.2v-.6h-.4c0-.2 0-.2-.2-.2v.2h-.4v.4h-.2v-.2h-.2v-.2H32v-.2h-.6v.2h-.2v-.4H31v.4h.2v.2h.2v.2h.6v.2h-.2v.2h-.4c0-.6-.2.1-.2.4h.2v.4c-.2 0-.2 0-.2-.2h-.6v.8h.2v.4h-.4v.2H30c0 .2 0 .2-.2.2 0-.6-.2.2-.2.4h.2v.4h-.4v.6h.4v.2h.4v.2H30v.4h-.4v.4h.2v.4h-.2v.6h1v.8c.2 0 .2 0 .2.2h-.2v.2h.2v.4h.2v.4c.2 0 .2 0 .2-.2h.2v-.2h.8v.4c-.2 0-.2 0-.2.2h.2v.4h-.4v.2h-.6v-.2h-.4c0 .3-.2.3-.2 0h-.4v-.8h-.4v.4h-.6v.2c-.2 0-.2 0-.2.2h-.2c0 .2-.1 1.2-.2.6h-.2v.2h-.2v.2H28v.6h-.2v.2h-.2v.2h-.2v.6H27v.2h-.2v.6h.2v.8h.2v.2h.8v.2h-.6v.4h-.2v.6h.2v.2h.2c0 .2 0 .2.2.2v-.2h.6v.2h.8v.2h-.4v.2h-.2v.4h-.2v.8h.4v.2h-.2v.2h-.2v.6h-.2v.4H28v.2h-.4v-.2h-.8v.2h-.6v-.2h-.6v-.2h-.2v-.2h-.2v-.2h-.4v-.2h-.2v-.2h-.2v-.2H24v-.2h-.2v-.2h-.2v-.2h-.2v-.2h-.2v-.2h-.4v-.2h-.2v-.2h-.2v-.2h-.2v-.2h-1v.2h-.4v.2h-.4v-.6H20c0 .2 0 .2.2.2 0 .2 0 .2-.2.2v.6h-.2v.2h-.2v.2h-.8v.2h-.6v.2h-.6v.2h-.4L19 174l3.5-12.7s-3.8 6.1-4.2 8.7c-.1.6-1.1 5-2.7 11.7v.2H15v.2h-.4v.2h-.8v.2h-.6v.2h-.6v.2H12v.2h-.6v.2h-.8v-.2h-.2v-.4h-.2v-.4H10v-.4h-.2v-.6h-.2v-.4h-.2v-.3h.7v-.9h-.9v.6h-.1v-.2h-.2v-.6h-.2v-.4h-.2v-.4h-.2v-.6h-.2v-.4h-.2v-.4h-.2v-.4h-.2v-.6h-.2v-.4h-.2v-.4h-.2v-.6h-.2v-.4h-.2v-.6h-.2v-.4h-.2v-.4h-.2v-.4h-.2v-.6h-.2v-.4h-.2v-.4h-.2v-.4h-.2v-.6h-.2v-.4h-.2v-.4h-.2v-.6h-.2v-.4H4v-14.1c-.2 0-.4 0-.6.3-.7.9.4 1.2-.5 1.1-.7-.1-.2-.4-.3-.8-.2-.5-.7-.7-.8-.9-.1-.1.2-.3.3-.2-.5-.7-1-.9-1-.9-.1-.2-.1-1.1 0-1.2 0-.1 1.2 0 1.2 0v.2c.7-.1-.4-1.6.9-1 0 0 .4.5.4.6.1 0 .6-.5.4-.6l.1.1v-2.8h1.5v-1.8h-.9v-.9h-.6v-5.7l2.4.1-2.4-30.5v-15l1.4-.7L5 83.2c-.1-.1-.3-.2-.6-.3v-53l1.3-.7c.3-2.5.8-6.9 1.4-11.9l-.4.1c.4-3.1.7-6.3 1.1-9.3l3.8.4c-2.7 14-5.7 29.7-5.7 29.7l1.2-2L14 7.8h4.7c-2.6 11.2-4.5 19.1-4.5 19.1l1.7-5.3 4.4-13.8h44.3c6.6 0 13 .7 18.9 2.2l5.7.4c0-.1-.1-.2-.2-.1.2-.4.2.1.5 0s.2-.6 0-.5c.3-.2.9-.5 1.2-.5.6 0 1.4.6 1.4 1.2l3.4.2 1.5.5-.8 1.8c0 .2 0 .5-.1.7l-1.4 1.2 1.2-.3c8.3 4.2 15 10.5 19.2 18.7-.8 8-1.3 13.1-1.3 13.1l3-4.8c.5.6 1 .8.8-.5 0-.1-.1-.3-.1-.5l.5-.7c1.6 5 2.5 10.6 2.5 16.9v31.3l-1.1 1.8h1.1v4.4l4.8-23.6 1.5-6.5c.2.1.4.2.6.4.7.5.1-.2.7 0 .5.1.5-.7.4-1.4 0-.1.1-.2.1-.2-.1-.2-.9-.8-1.2-1.1l8.3-35.1c1.3-10.7 2.3-18 2.3-18l-.1-1 .1-.4h15.2c7.4-.9 27.8-2 33.8-2-3.4 1.2-4.6 1.6-6 2h19.5l.1.3h8.2v.1l8 .6 5-.6h20.8L246 16l.5-.1 1.7 4c.4.3.9.5 1.3.8l15 53 4.2-15.4h.1l1.4-2.2-.4-1.6 12.9-46.9h32.2l.1.1L325.8 9l.2-.6 8 1c-.2-.6-.3-1.2-.5-1.7h24l.3.6c.4.3 1.3.3 1.4.2.2-.2.3-.5.2-.8h49.1l-.8-1.4 9 1c0-.7.7-.3.9.1l.9.1v.2h.8l1.3 5.3.4-5.3h4.5V15c.2-.1.4-.1.6-.1 1.2.1 1.7 2.3 1.8 2.3-.1.1-.5 0-.4-.3.1-.3-.5.7-.1.5-.4.2 0-.2-.4-.3-.3-.1-.5.3-.3.4-.3-.1-1-.2-1.2-.4v11.7l1.7 4.3 2.9 1.6-9.3 20.3.9-5.2-28.5 63.4c-.7-1.1-2.2-1.6-2.6.2.7.1.9.7 1.5.9 0 .4-.2.9.1 1.2L376.8 150l-1.1-.7-3.6 10.2.7-.5-.3.6h43.4c-.2-.8-.6-1.1-.6-1.1 0-.2.2-1 .4-1.1l1.1.4-.1.2c.7.1.1-1.7 1.2-.7 0 0 .2.7.2.6.1 0 .7-.3.6-.5.2.3-.2.4-.1.7.1.7.6.8.4 1.5h.4c.2-.2.5 0 .6-.1.5-.4.4-.6 1.2-.7.1 0 .3.3.4.2.1 0 .1 0 .2-.1v.2c-.1.1.2.3.5.5zm-9.8-109.7c0 .6 1 .9 1.1.3-.4-.1-.6-.5-1.1-.3zm-12.2 10.2c.4-.1.6-.3 1.2-.3-.4-.8.1-2-1-1.7.4.4-.1 1.4-.2 2zm-6.6 24.1c.4 0 .5.3.7.5.4-.5-.4-.2-.4-.7.4-.3.8.4.9-.1-.3-.2-.7-.4-1.1-.6.2 0 .2-.2.3-.2.2.2.9.8 1.1.4.1-.4-1.2-.9-.8-1.5-1.1.4-.5 1.6-.7 2.2zm-7.5 28.5c.4.3.5-.1 1-.1v-.5c-.6-.1-.7.3-1 .6zM4.4 151.2c0 .1-.1.2 0 .4v-.4zm3.3 7h-.9v.9h.9v-.9zm2.7.8v-2h-.9v2h.9zm.9 14.2h-.9v2.8c1.6.1.9-.8.9-2.8zm2.6 5.5H13v1.8h.9v-1.8zm0-15.2H13v.9h.9v-.9zm2.9-4.5h-1.1v.9h1.1v-.9zm2 18.4h-.2v.2h.2v-.2zm5-16.2c-.1-.1-.5.5-.3.6.2 0 .6-.5.3-.6zm4.4 18.6h.2v-.2h-.2v.2zm-2-4.9c.1.1.9-.6.7-.7-.2-.1-1 .6-.7.7zm.6 6.7h-.2v.2h-.2v.2h.2v-.2h.2v-.2zm-.1-6.5c-.2-.1-.5.5-.3.6.2.1.6-.5.3-.6zm.3-.3v-.2h-.2v.2h.2zm.2.5H27v.2h.2v-.2zm.6-2.2h-.2v.6c.3-.1.2-.3.2-.6zm.4-.8h-.4v.2h.2v.2h.2v-.4zm.8-4h-.2v.4h.2v-.4zm1.6 4.6h.4v-.2h-.4v.2zm-1-1.2v.4h.2v-.4h-.2zm0-4.6h-.2v.2h.2v-.2zm5-4.4h-.2v-.6h-.2v.2h-.6v.2H33v1h-.4v-.2h-.2v.6h.2v.2h.4v-.2h.2v-.2h.4v.4c.2 0 .2 0 .2-.2h.2v-.4h.2v-.2h.4v-.6zm.4-1.6h-.2v.2h.2v-.2zm6.7 11.8h-.2v.4h.2v-.4zm-.2-44c0-.1-.1-.3-.1-.4-.8-2-.9 2.4.1.4zm-2.2 37.8h-.2v.2h.2v-.2zm2.6-30.8l-3.6 2c-.4.3-.7.5-.7.5-.1 0 0 .2.1.3H40l1.9-2.8zm.4-59.5l.3-2.3-1.4 2.3h1.1zm.2 97.1h-.2v.2h.2v-.2zm.2-1.2h-.6v.6h.6v-.6zm0-1.3h-.2v.2h.2v-.2zm-1.2 11.4h-.2v.2h.2v-.2zm.4 0h-.2v.2h.2v-.2zm.8-1.2h-.2v.2h.2v-.2zm15.9 4.1c0 .1.3.2.3 0 0-.1-.3-.2-.3 0zm4.8 5.8c0-.1-.3-.2-.3 0-.1.1.2.2.3 0zm3.5-3.5c0 .1.3.2.3 0 0-.1-.3-.2-.3 0zm-.8-13.1l.2-.1c.9-.8-1.4-.1-.2.1zm-1 16.1h.2c0 .3-.2 1.2.2 1.2.3-.1 0-1.8 0-2.2h-.2v.8c-.3 0-.2 0-.2.2zm-.5 1.6h-.2v.2h.2v-.2h.2v-.4h.2v-.6h-.2v.4h-.2v.6zm0-17.7c0-.1-.3-.2-.3 0-.1 0 .3.1.3 0zm-.4-3.6c0 .1.3.2.3 0 .1-.1-.3-.2-.3 0zM63 179c0 .1.3.2.3 0 0-.1-.3-.2-.3 0zm-.2 1c0 .1.3.2.3 0 .1-.1-.2-.2-.3 0zm-.6-19.1c.1.1.5-.4.3-.6-.2 0-.6.5-.3.6zM61 176.3c0 .1.5.4.5.2 0 0-.5-.3-.5-.2zm-1.3 3.1c0 .1.3.2.3 0 .1-.1-.3-.2-.3 0zm-.5-.3c0 .1.3.2.3 0 .1 0-.2-.1-.3 0zm-.2.8c0 .1.3.2.3 0 0 0-.3-.1-.3 0zm-.5-.2c0 .1.3.2.3 0 0 0-.3-.2-.3 0zm-1.1 2.1c.2-.2 0-.3-.3-.4-.2.1 0 .5.3.4zm-.9-22.4c.2.1.5-.5.3-.6-.2 0-.6.5-.3.6zm-.4 22.2c0 .1.3.2.3 0 0-.1-.3-.2-.3 0zm-.4-3.6c0 .1.3.2.3 0 0 0-.3-.2-.3 0zm-.2 10.6c0-.1-.3-.2-.3 0-.1 0 .2.1.3 0zm-.4-8.7c0 .1.3.2.3 0 0 0-.3-.1-.3 0zm-2-32.3h.6l.9-.3.1-.5-.1-.6-.4-1.1-1.1 2.5zM51 187.8c0-.1-.3-.2-.3 0 0 .1.3.2.3 0zm.2.2c0 .1.3.2.3 0 0-.1-.3-.2-.3 0zm-.4-3.6c0 .1.3.2.3 0 0 0-.3-.2-.3 0zm-.1-3.2c.1-.1.1-.4-.1-.2-.1.1-.1.4.1.2zm-1.9 5.3c0 .1.3.2.3 0 .1 0-.2-.2-.3 0zm-1.2 1.5c0-.1-.3-.2-.3 0 0 .1.3.2.3 0zm-.3-2.4c0 .1.3.2.3 0 0 0-.3-.1-.3 0zM46 189c0 .1.5.4.5.2 0-.1-.5-.4-.5-.2zm-.1-2c0 .1.3.2.3 0 .1-.1-.3-.2-.3 0zm-.3 2.3c0 .1.3.2.3 0 .1-.1-.3-.2-.3 0zm-.3.7h-.2v.2h.2v-.2zm-.5-55.9c.1.1.5-.5.3-.6-.2 0-.6.5-.3.6zm-.9 42.9h.4v-.4h-.4v.4zm0 1.4c.3 0 .2 0 .2-.2h.2v-.4h-.4v.6zm-.9 10.2c0 .1.5.4.5.2 0-.1-.5-.4-.5-.2zM62.7 13.1c-.1-.1-.2-.1-.3 0l.1.1.2-.1zm6.7 4.6c-.1-.1-.3 0-.2.1.1 0 .1.1.2.1-.1-.1 0-.1 0-.2zm.5-2.4c-.1-.2-.5-.2-.5.1.1.1.3 0 .4 0l.1-.1zm1 1.3c-.1-.3-.2 0-.4 0 0 0-.1.1-.1.2.1.2.2 0 .3 0 .1 0 .1-.2.2-.2zm11.3 117.7v-.1c-.1-.1-.7 0-.6.3 0 0 .5 0 .6-.2zm.3-.2v.4c.2 0 .3-.3 0-.4zm.8-1.2c-.1-.1-.5.4-.3.6.2 0 .6-.5.3-.6zm.7-19.1c-.1-.1-.5.5-.3.6.2 0 .6-.5.3-.6zm.1-14.8c-.1-.1-.5.4-.3.6.2 0 .6-.5.3-.6zm1.8-59.3c-.3-.6-.7.5-.1.5.3-.1.2-.4.1-.5zm.6-13.5c-.1 0 0 .4.2.3 0-.1-.1-.4-.2-.3zm1 79.4c-.1-.1-.5.4-.3.6.2 0 .5-.5.3-.6zm.4 12.3c-.2-.1-.5.5-.3.6.2 0 .6-.5.3-.6zm1.4-14.9c-.1-.1-.5.5-.3.6.2 0 .6-.5.3-.6zm.7 14.4c-.2-.1-.5.5-.3.6.2 0 .6-.5.3-.6zm.8 59.6c0-.1-.3-.2-.3 0 0 0 .3.1.3 0zm.6-69.6c-.1-.1-.5.5-.3.6.2 0 .6-.5.3-.6zm3.8-84.6c.1.1.2 0 .3 0 .1-.1 0-.2.1-.3-.2 0-.3.1-.4.3zm-2.5 76.9c.2.1.5-.5.3-.6-.2 0-.6.5-.3.6zm-.5 73.6c0-.1-.3-.2-.3 0-.1 0 .2.2.3 0zm.7-8c0-.1-.3-.2-.3 0-.1.1.3.2.3 0zm.3 5.1c-.1.1-.1.3.1.2.2-.1.1-.4-.1-.2zm.3-58.5c-.3-.4-.5 0-.8.4.2.3.9.1.8-.4zm.1-74c0-.1-.1-.1-.2-.1 0 .1.1.1.1.1h.1zm.9-19.5l.1.1-.1-.1zm.4 144.1l.2-.1c1-.7-1.4 0-.2.1zm1-126.2c-.1-.1-.2-.1-.4-.1-.2.3-.7.6-.4 1 .1.1.3.1.5.1.3-.3.4-.7.3-1zm3.2-17.2c.1 0 0-.4-.2-.3 0 .1.1.4.2.3zm.9.5c-.6-.8.1 1.2-.5.1-.4-.7.3.4-.4.4-.4 0-.3-.7-.7-.9-.2.5.3.7.4 1.1.1.5.1 1.1.4 1.3.6.6 1.5 0 1.5-.1.1-.6-.3-1.3-.7-1.9zm1.1 84c-.1-.1-.5.5-.3.6.2 0 .6-.5.3-.6zm.8-82c-.1 0 0 .4.2.3 0-.1-.1-.4-.2-.3zm.5 23.3c0 .1-.1.1-.1.2.1 0 .1.1.1.1.2-.1.1-.2 0-.3zm1.2-19.9c-.1 0 0 .4.2.3.1-.1 0-.4-.2-.3zm.7 32.6c-.1 0 0 .4.2.3 0 0-.1-.3-.2-.3zm.4-36.3v-.1c-.2-.1-.7.2-.5.4.3.2.5-.1.5-.3zm.6 156.8c0-.1-.3-.2-.3 0 0 0 .3.1.3 0zm1.4 2.2c0-.1-.3-.2-.3 0 0 0 .3.1.3 0zm1.2-5.1c-.2-.2 0-.5-.3-.4-.2.2 0 .5.3.4zm.1 5.2c0-.1-.3-.2-.3 0 0 .1.3.2.3 0zm1.4-3.6c0-.1-.3-.2-.3 0-.1 0 .2.1.3 0zm.6-136.4c-.1 0 0 .4.2.3 0-.1-.1-.4-.2-.3zm4.1-3.5s-.6-.2-.7-.2c-1.5.8 2.2 1.4.7.2zm0 22.4c-.1 0 0 .4.2.3 0 0-.1-.3-.2-.3zm1.1 61c-.2-.1-.5.4-.3.6.2 0 .5-.5.3-.6zm2-18.4c-.1-.1-.5.5-.3.6.2.1.5-.4.3-.6zm.9-51c-.1 0 0 .4.2.3 0-.1-.1-.4-.2-.3zm13.7 3.5c.1 0 0-.4-.2-.3-.1.1 0 .4.2.3zm-.1 2.9c-.4-.7-.9.2-.6.6.3.5 1.1.2.6-.6zm1 0c-.1 0 0 .4.2.3 0 0 0-.4-.2-.3zm1.6 1.2c-.1 0 0 .6.1.5.1 0 .1-.6-.1-.5zm.1-8.3c-.1 0 0 .4.2.3 0 0-.1-.4-.2-.3zM136 58c0-.2-.1-.2-.2-.1.2-.2 0 .6-.1.5.3.5.3-.4.3-.4zm1.1 3.7c-.1 0 0 .4.2.3.1 0 0-.4-.2-.3zm3.2-47.3c-.2.1-.3.4-.1.6.1-.2.4-.4.1-.6zm.2-4.1l-.1-.2c0 .1 0 .2.1.2zm1.8 3.8c.2 0 .3-.1.2-.3l-.2-.1c0 .2-.2.3 0 .4zm.3 121c0-.1-.2-.2-.2 0l.1.1s0-.1.1-.1zm.4 6.1s-.1 0-.1-.1c-.1 0-.2 0-.2.1s.1.1.2.2l.1-.2zm9.8 43c.1-.1-.1-.3-.2-.2-.2.2 0 .4.2.2zm-9.2-154.3c0-.1 0-.3-.1-.2l.1.2zm.2-21.7c-.1-.2-.4-.1-.3.1.1 0 .2 0 .3-.1zm1.3 119.1h-.2.2zM146.6 9c-.1.1-.1 0-.2 0 .1.1-.1.5.3.4.1-.2.1-.4-.1-.4zm.5 16.3c-.1 0 0 .4.2.3 0 0-.1-.4-.2-.3zm6-12.9c-.1-.2-.2 0-.2.1l.1.1.1-.2zm13.3 4.8l-.2-.1c-.1 0 0 .1 0 .2.1 0 .1.1.2-.1zm.5-4.5l-.1-.1.1.1zm.1-3.9c-.6-.1-.6.6-.2.9.3-.1.5.3.7 0 .2-.4-.3-.5-.5-.9zm3.2 7.3c0-.2-.2-.5-.5-.4-.2.1 0 .3 0 .5.2-.1.4.2.5-.1zm.1-4.6c-.1 0 0 .1 0 .2h.2c0-.1-.1-.2-.2-.2zm.3-2.9l-.1-.1-.1.1h.2zm-.1 93c-.1-.1.1 0 0 0zm7.9-14.5c0 .1 0 .1 0 0zm2-72.9c.3.4.6.5.9.6.1.2.4.2.6.1.4-.4-.3-.7-.3-1.2-.4-.3-.8-.9-1.3-.6-.4.4 0 .7.1 1.1zm1.8 86.7c-.3-.2-.6-.2-.9-.1.3.3.6.5.9.7-.4.1-.7-.3-1-.6-.1.1-.2.1-.3.2.4.3.9.6 1.2 1-.5-.1-.9-.5-1.3-.9-.2.2-.3.4-.3.7.1.1.3.2.4.4-.2 0-.3-.1-.4-.2v.1c0 .4.2.7.4.9.3.4.8.4 1.2.4.1-.2.4 0 .4-.3h.2c.1-.3.5-.4.5-.8-.1-.7-.7-1.1-1-1.5zm.8-87.4l-.2-.1c-.1.2.1.3.2.3s.2-.2 0-.2zm3.4-3.7c.1 0 .1.1.2 0 .1 0 .1-.1.1-.2l-.2-.1c-.1.2-.1.2-.1.3zm.4 6c.1-.2-.2-.4-.4-.4-.1.1 0 .2 0 .3.1 0 .2.3.4.1zm3.9 91.1c0-.1-.1-.3-.2-.4-.1 0-.3.1-.3.2-.1.2.1.3.2.4.2-.1.4-.1.3-.2zm-4.6 43.8c-.1 0-.2 0-.3.1.1.1.1 0 .2 0s.2-.1.1-.1zm-.7 17.6c0-.2-.2-.4-.4-.3-.1.1-.1.2-.1.4.1.1.2.3.4.2 0-.1.1-.2.1-.3zm.4-4.7c-.2-.5-.5 0-.7.2-.1.1-.1.2-.1.3.1.1.1.4.3.3.4-.1.3-.5.5-.8zm0 .9c0-.1-.1-.1-.1-.1l.1.1zm.2 2.4c0-.1 0-.3-.1-.3-.1.1-.1.2-.1.3.1 0 .1.1.2 0zm.5 9.2v-.2l-.1.1s0 .2.1.1zm.1-5.6c0-.1-.1-.2-.2-.3l-.1.1c-.1.2 0 .3.1.4l.2-.2zm.1-3.6c0-.2-.1-.4-.2-.5l-.1.3c0 .1.1.2.3.2zm.5-.5c0-.2-.1-.5-.3-.3 0 .2.2.3.3.3zm.2 7.6c0-.1 0-.1-.1-.1 0 .1 0 .2.1.1zm2.9-14.1c0 .3.2.4.3.5l.1-.2c.2-.3-.3-.6-.4-.3zm0-1.3c0 .1.1.2.2.3l.1-.1c0-.1 0-.3-.1-.4-.2 0-.2.1-.2.2zm-.2 2c0 .2.1.5.3.6l.1-.1c.1-.2 0-.4-.2-.5-.1-.1-.2-.1-.2 0zm-.2 12.2c-.4.1-.4.5-.5.8-.1.6.2 1 .1 1.6.1.5.1 1.1.5 1.4.6.3.2-.7.7-.5.3-.5.2-1.1.2-1.7-.3-.6-.4-1.4-1-1.6zm-1.6 4.7v.9h1.8v-.9h-1.8zm.9-7.1c.1-.1.3.2.3 0 .1-.3-.3-.4-.5-.4 0 .2.2.3.2.4zm.4 1.1h-.1c0 .2.1.3.1.4l.1-.1c0-.1 0-.2-.1-.3zm-1.5-6.4c-.6.6 0 1.5.3 2.1h.1c-.1-.4.4 0 .3-.3.4.1 0-.3.3-.5l.2.1c.1-.1.3-.1.2-.2-.2-.2-.1-.6-.5-.7v.1c-.3-.1-.4-.7-.9-.6zm0-6c.1-.1 0-.2-.1-.1 0 0 0 .1.1.1zm.3 5.3c-.1 0 0 .1 0 .2 0 0 .1.1.1 0-.1 0 0-.2-.1-.2zm.2-.4h.1c0-.2-.1-.6-.3-.3 0 .1.1.3.2.3zm-.2-6.4c-.1.3.1.6.4.7l.2-.2c0-.3-.1-.5-.3-.6-.1-.1-.2 0-.3.1zm-.3-1.7c.2 0 .4-.1.4-.3 0-.2-.1-.3-.2-.4-.2-.1-.4.1-.5.3-.1.2.2.3.3.4zm-.3 18.6c0 .2 0 .3.1.4v-.1c0-.1 0-.2-.1-.3zm.2-5.8c-.1-.1-.2-.3-.3-.3v.3c.1.1.1.4.3.4.1-.2.1-.3 0-.4zm1.2 15.9h-.9v.9h.9v-.9zm.7-.7s-.1-.1 0 0h-.1.1zm.1-1.9c.3-.2.4-.4.8-.4 0-1-.1-.5-.4-1h-.6c-.1.2-.2.3-.2.4h-.4v.5c-.2.1-.5.1-1 .1v1c-.3.2-.1 0-.2.6h.6c.2.2.4.1.4-.4 0 0 .3.2.4.2v-.4s.3.2.4.2c.2-.1.2-.5.2-.8zm1 4.4h-.9v.9h.9v-.9zm8.1-32.5l-.1.1.1.1c.1 0 .1-.1.1-.1 0-.1 0-.1-.1-.1zm-.1-3.4zm-.8-18.8h.1-.1zm-.2-2.3c.1-.1.1-.1 0-.1v.1zm-.4-34.9s0-.1 0 0c.1-.1 0-.1 0-.2-.1 0-.1.1 0 .2zm-.3 50.7c0-.1 0-.2-.2-.2 0 .1.1.2.2.2zm-1.6-9.2c0 .2 0 .5.2.7.2.3.5.3.7.3.2-.1.5-.3.5-.6.1-.5-.4-1-.9-.9-.2.1-.4.3-.5.5zm1.2 6.8c0-.1 0-.1-.1-.1 0 0-.1.1 0 .1 0 .1.1 0 .1 0zm-.4 2.7c0 .1.1.2.2.2 0 0 .1 0 .1-.1.1-.1-.1-.3-.3-.1zm-1.5-7.7c-.1.2 0 .4.1.6.2.1.4.3.7.2.2-.1.4-.2.4-.4.1-.4-.1-.8-.5-.8-.3 0-.6.1-.7.4zm.3-21.3c.1-.1.1 0 0 0 .1-.2 0-.2 0 0zm.6-4.3c0-.1 0-.1-.1-.2-.1.2-.4.3-.3.5.2.1.3-.1.4-.3zm-.6-96.7l.3.2.3-.3c-.2-.2-.3-.3-.5-.2-.3 0-.1.2-.1.3zm-.3 81.4h.2l-.1-.1-.1.1zm-.1 42.9c.1.1.1.3.3.4.2 0 .4.1.5-.2 0-.2 0-.5-.2-.6-.1 0-.2-.1-.4 0-.1.1-.2.2-.2.4zm-.3 3.2l-.1.1h.1v-.1zm.8 13c-.3.1.1.1.1.2l-.1.1.1.1c0-.2.1-.2 0-.4h.2c-.1-.1-.1-.3-.2-.3-.2.1-.1.2-.1.3zm-.3 10.5c-.1.1 0 .2 0 .3.1.1.2.3.3.1.1-.2-.1-.5-.3-.4zm0 .7v-.1.1zm-.3 1.8c-.1.1 0 .1 0 .2s.2.1.2 0c.2-.1 0-.2-.2-.2zm.5-3.1c-.2-.4 0-.8-.1-1.2-.2-.3-.3-.6-.6-.7-.1 0-.3 0-.4.1-.2.4.1.8.3 1.1.2.2.4.3.5.6.1.1.1.2.3.1zm-.5 10.2c.1.2.2.4.4.5 0-.1.1-.2.1-.4-.1-.2-.1-.4-.3-.5-.3 0-.2.3-.2.4zm-.3 2.3v.9h.9v-.9h-.2v-.8l.4-.2c-.3-.5-.2-.6-.4.2-.3.2-.3.6-.1.8h-.6zm.3-5.9h-.2c-.3-.5.1-.1-.4-.4-.2-.3 0-.2-.2 0h.2c.2.3.1.2.4.4.2.3 0 .2.2 0zm-.5 4.7l-.1.1s.1.1.1 0v-.1zm-.3 2.4c.2-.3.1-.7 0-1-.2-.1-.1-.7-.5-.5-.1-.1 0-.3-.1-.4h-.1c-.1.2.1.3.2.4-.2.1 0 .5-.2.7-.1-.1-.1-.1-.2-.1 0 .1-.1.1 0 .2 0 .3.2.5.4.6.1-.1.1-.2.1-.3l.4.4zm-.3 2.2c0 .1 0 .1.1.1v-.1h-.1zm.4-34.7c0-.1-.1-.2-.2-.2l-.1.1.3.1zm0 22.2c0-.1 0-.2-.1-.2s0 .2.1.2zm-.3 1.6c.2.8-.2.5.2.8-.2-.8.2-.5-.2-.8zm-.2-.6c-.1.1.1.3.2.2.1-.1-.1-.3-.2-.2zm-.1-24.9c-.1 0-.2 0-.1.1 0 0 .1.1.1 0 .1.1 0 0 0-.1zm0 16.9v0zm.7-.4s.1.1.1 0h-.1zm0-24.5v-.1c-.1 0 0 0 0 .1zm-.1 4.3v.1-.1zm.4-6.3l-.2-.2c-.3.1.1.2.2.2zm-.2-25c.2 0 .3-.2.3-.3 0-.1 0-.2-.2-.2-.1.1-.2.3-.1.5zm-.9 17.2c0 .2.2.4.4.5.3.1.6-.1.7-.4.1-.3-.2-.5-.5-.6-.3-.1-.5.2-.6.5zm-.1 12.3c0 .2.1.3.2.3s.2 0 .2-.2-.1-.2-.2-.3l-.2.2zm-.3-2.2c.1 0 .1.1.1 0 0 0 0-.1-.1 0zm-.2 5.3c0 .4.3.6.6.7.6.1.8-.5 1.1-.9-.3-.4-.9-.5-1.3-.6-.3.2-.4.5-.4.8zm.2 18.5l-.1.1c.1.1 0 .3.2.2 0-.1 0-.2-.1-.3zm-.7-23l.1.1c.1-.1-.1 0-.1-.1zm-.1 1.7c.1.1.2.1.4.1v-.2c.1-.2-.2-.4-.4-.3 0 .1-.1.3 0 .4zm-.7 18.1c0 .3.1.6.4.7.2.1.3 0 .3-.2s0-.5-.3-.6c-.2-.1-.4-.1-.4.1zm.6 4.9c0-.1 0-.4-.2-.3 0 .1.1.3.2.3zm-.2 2.4c0 .1 0 .1.1.1l.1-.1c-.1-.1-.2-.1-.2 0zm.2-6.5l-.1.1.1.1v-.2c-.1.1 0 .1 0 0zm-.3 2.7c0 .1 0 .3.1.2 0 0-.1-.1-.1-.2zm-.6 13.2s0-.1 0 0l-.1-.1c0 .1 0 .1.1.1zm.1-12.7c0-.1 0-.2-.1-.3 0 .2.1.3.1.3zm.7 14.2c-.1 0-.1.2 0 .2.1-.1.1-.1 0-.2zm.5 5.3c0-.1 0-.3-.1-.4l-.1.1c-.1.1 0 .3.2.3zm.1-7.2c0-.1 0-.2-.1-.2s-.1.2.1.2zm-.2 11.8c-.1.1.1.3.2.2.1-.1-.1-.3-.2-.2zm.4-15.5h-.2v-.2h-.4c-.2.5 0 .3-.2.6-.6 0-.6 0-.8.4.3.2.8.7 1.2.2.4-.2.4-.4.4-1zm.3 6.7l.1-.3c0-.3-.1-.6-.4-.7-.2 0-.1.2-.2.4.2.2.3.5.5.6zm-.1 7.8c.2-.3.3-.6.2-.9-.1 0-.1-.2-.2-.1s-.2.4-.2.5c.2.1.1.4.2.5zm2.8 1.3c.1-.3 0-.7-.2-.9l-.2.2c0 .2.2.5.4.7zm.2 3.4c.1-.1 0-.2 0-.3-.4.3-.2.1-.2 1 .3-.2.2-.1.2-.7zm0-1.7h-.1c-.1.3-.1.7.1.9.2-.2.1-.6 0-.9zm.3-5.6h-1.8v.3c-.1.1-.1.3-.1.5.1-.1-.6.9-.6 1.4-.4.3-.8 0-.8.8h.4c.1.2 1.7.7 1.8.6v-2.2c0-.1 0-.3-.1-.5h1.2v-.9zm0-1.7h-.9v.9h.9v-.9zm1.4-4.6c-.4-.5-.1-1.4-.6-1.9.1-.1.2-.3.4-.4 0-.4 0-.2-.2-.4 0 0-.5-.5-.6-.4v.4c-.2.2-.6.1-.8.2-.2-.4-.2-.2-.6-.4-.2-.3.2-.2-.2-.4v-.4c-.4.2 0 .1-.2.4h.2c.2.9.1 2.5.6 3.2h.2c.2.3.4.5.7.7.4.1.1-.4.2-.6 0-.3 0-.7-.2-1v-.4c.1.4.4.7.7 1 .1.2.1.6.4.7v-.3zm-1.7-22.2h-.2.2zm1-1.4c0-.1 0-.3-.2-.3-.1-.1-.2.1-.3.2 0 .2.2.2.2.3.1 0 .2 0 .3-.2zm0 7.6c.1.1.1 0 .2 0 0-.1-.1-.3-.2-.2 0 .1-.2.2 0 .2zm-.4 8c-.2.2-.1.4 0 .6.1.1.2-.1.2-.1 0-.2.1-.5-.2-.5zm1.1-20.5c0-.6-.3-1.2-.9-1.6-.5-.3-1.1-.2-1.5.1-.4.4-.7.8-.7 1.3-.1.9.5 1.4 1.2 1.7.4.1.8 0 1.2-.2.5-.1.7-.7.7-1.3zm.1-138.4h.1l-.2-.1.1.1zm.6 168.7c0-.2-.1-.4-.2-.6-.1 0-.1.1-.1.1-.1.3.1.5.3.5zm.1-7.4c0-.3 0-.7-.4-.7-.2.2-.2.6-.1.8.1.2 0 .5.3.5.1-.1.1-.4.2-.6zm.2-30.3c0-.1-.2 0-.2 0 0 .1.1.1.1.1l.1-.1zm.4 24.5c0-.1-.2-.3-.3-.1 0 0 .1.2.3.1zm.2 7.1c0-.1-.1-.3-.2-.3 0 .2 0 .3.2.3zm1-29c0-.1-.1-.1-.1-.1v.1c0 .1 0 0 .1 0zm.4 25.3c0-.1-.1-.2-.2-.3v.2c.1 0 .2.1.2.1zm.2-39.6c.2-.5-.3-.7-.6-.8-.2.1-.3.5-.4.7 0 .2.3.4.4.5.3 0 .5-.1.6-.4zm.2 30.6c0-.1 0-.2-.1-.2-.2 0-.2.1-.1.2h.2zm.3 22.1c0-.1 0-.2-.1-.2s0 .1.1.2zm-.5 2.1c0 .2.2.4.4.6v-.3c-.1-.1-.1-.3-.3-.4l-.1.1zm.3 5.1c-.1.1-.2 0-.2.1-.1.5.3.9.6 1.2.1-.4-.1-.9-.4-1.3zm.6-3.3h-1.1v.9h1.1v-.9zm19.3-18.9l.1.1h.1c.1-.1 0-.2-.2-.1zm5.7-8.9c0 .1 0 .1.1.2s.2 0 .2-.1 0-.2-.1-.2c-.1-.1-.2.1-.2.1zm-2.3-1.2h.1-.1zm-2.1-21.7c.2.1.2-.1.5 0-.2-.2-.4-.1-.5-.1v.1zm-.5 23.6c.1 0 .1.1.2 0 0-.1-.1-.1-.1-.1l-.1.1zm-.6-30.8c0 .1 0 .2.1.2s.1-.1.2-.1c0-.2-.2-.2-.3-.1zm-2.9 47.1c0-.2-.2-.5-.4-.4-.1.3.2.3.4.4zm1.1-10.9c-.1 0-.2.2-.1.4.2.4.7.7 1.2.8.1 0 .2.2.4.1 0-.1-.1-.2-.2-.3-.3-.5-.8-1-1.3-1zm.3-37h0zm-.2 32.1c0 .1.1.1.1.1h.1c0-.2-.1-.1-.2-.1zm-.6-10.7h.1c0-.1 0-.1-.1 0zm-1.3 13.7c0 .6.6 1 1.1 1.2.3 0 .6.3 1 .3.1 0 0-.1 0-.2-.4-.5-.7-1.1-1.4-1.4-.2 0-.5-.1-.7.1zm-.2-6.2c0 .1.1.2.2.1 0-.1-.1-.1-.1-.2 0 .1-.1 0-.1.1zm-.1 6.9c.1 0 .2.2.3.1 0-.1-.1-.2-.2-.2s-.1 0-.1.1zm-.8-24c0 .1.1.3.2.3s.2 0 .2-.1c.1-.1 0-.2-.1-.3-.1-.1-.3-.1-.3.1zm-.2 31.7c0 .2.3.4.4.4-.1-.2-.2-.5-.4-.4zm-.7-9.1c.1.1.1.2.2.1s-.1-.2-.2-.1zm-.5-30.1c0 .2 0 .4.2.4.1 0 .3 0 .4-.2.1-.2 0-.4-.2-.5-.1 0-.3.1-.4.3zm-.1 32.2l.2.1c0-.1-.1-.2-.2-.1zm-.2-60.7s.1.1.1 0v-.1s-.1 0-.1.1zm-5.8 80c-.1-.3-.2-.6-.4-.8-.1 0-.1 0-.1.1 0 .3.3.5.5.7zm2.6-10.6c0-.1 0-.2-.1-.2-.1-.1-.2-.2-.4-.2.1.2.3.4.5.4zm.7 3.8h-.9v.9h.9v-.9zm-.4-25.5l-.1.1.1-.1zm0 9.3l-.1.1.4.3c0-.2-.1-.3-.3-.4zm.8-9.5c0-.1-.2-.1-.3 0v.1c.2-.1.3 0 .3-.1zm1 23.3c0 .2.2.3.3.3-.1-.2-.2-.3-.3-.3zm-.9-46.9h.1-.1zm-.6.8c0 .1.1.1.2.2.1 0 .1 0 .2-.1s-.1-.2-.1-.2c-.1-.1-.2 0-.3.1zm-.6 16.9c.2.2.6.4.9.3.4-.1.5-.5.6-.9-.1-.2-.2-.4-.4-.6-.2-.1-.4-.1-.7-.1-.2.1-.4.3-.5.5 0 .3 0 .6.1.8zm-.5.8c-.1.1 0 .2 0 .3.2.1.4.2.6.2.2-.1-.1-.3-.2-.4-.2-.1-.3-.1-.4-.1zm-.2-36.3l.1.1v-.1h-.1zm-.5 14.2c0 .1 0 .1.1.2.1 0 .3 0 .3-.2-.1 0-.2.1-.3.1v-.2c0 .1 0 .1-.1.1zm-.6 19.8c.1.1.2.1.2 0 .1-.1-.1-.2-.2-.2v.2zm-.4-8.7l.1.1v-.1h-.1zm-.1 28.9c.3-.2.7-.6.2-1 0-.6.1-.4-.2-.6v1.6zm-.2 16.4c-.2.3-.3.9 0 1.2 0-.5.4-.9 0-1.2zm-.5-45.6s-.1.1 0 .1.2.1.3.1c0 0-.2-.2-.3-.2zm-.3-5.3c0 .1-.1.1-.1.2s.2.2.3.2c.3-.1.1-.6-.2-.4zm.2 1.7l.1.1c-.1 0-.1 0-.1-.1zm-.5-30s0 .2.1.1c.1 0 .2 0 .3-.1 0-.2-.1-.3-.3-.2 0 0-.1.1-.1.2zm-.1 79.1c-.1.5.4.8.7 1.1l-.1-.3c0-.3-.2-.7-.6-.8zm-3.8-9.2v.1c.1.2.2.3.4.3 0-.2-.2-.4-.4-.4zm.1-32.7c-.1-.1-.3-.2-.4-.1.1.2.3.1.4.1zm-.6 1.7c.1 0 .2 0 .2-.1s0-.2-.1-.2-.1 0-.2.1 0 .2.1.2zm-.2 28.2l.1.1-.1-.1zm.3-30.6v-.1.1zm-.4-30.2c.1.2.3.2.4.2.1 0 .3-.1.3-.2.1-.3-.2-.5-.5-.4-.1 0-.3.2-.2.4zm-.2 15l.1.1c.2-.1.1-.1-.1-.1zm0 55.8c-.1.1 0 .1.1.1 0 0-.1 0-.1-.1zm-.9-56.5c.1.1.2 0 .4.1.1 0 .1-.2.2-.1l-.1-.2-.1.2-.1-.1c-.1 0-.2 0-.3.1zm-.8 6.8c.5.5 1-.3 1.6 0 0-.2-.2-.2-.4-.3-.1-.5-.4-.8-.8-1.1-.2 0-.5.1-.6.3-.1.4 0 .8.2 1.1zm.3 31.8s-.1-.1-.1 0h.1zm.2 6.9v-.1c-.1 0 0 0 0 .1zm0-35.4c.2-.1.5-.1.7-.2 0-.1-.1-.2-.2-.3-.4 0-.7-.4-1.1-.1-.1.4.4.3.6.6zm.3 8.7v-.1.1zm.5 26.9c-.2.1-.3-.1-.4.1 0 .2 0 .4.2.5.1 0 .3 0 .3-.1 0-.2 0-.4-.1-.5zm.1-21.5l.1.2c0-.1-.1-.2-.1-.2zm.1 34.4h.2v-.4s-.1 0-.1.1c0-.1-.1-.2-.2-.3l-.1.1c0 .1.1.2.1.2 0 .1 0 .2.1.3zm.8 1.4c.1-.4.2-.6.4-.7 0 0 .1-.1.2-.1v-.4l-.2.2-.3-.9c-.1-.1-.4-.5-.5-.2 0 .5.4.9.7 1.2l-.1.1c-.1 0-.6-.3-.8-.4-.1.2 0 .3.2.2v1h.4zm.8 5.3c0-.2-.1-.4-.1-.6-.1-.1-.2-.4-.4-.3-.2.3.1.6.3.9h-.1.3zm.7-2.3h-.9v.9h.9v-.9zm0-2.6h-.9v.9h.9v-.9zm.3 5.5c-.2.5-.3.7.2 1 .2-.4.1-.7-.2-1zm0-42.3c.1 0 .2.1 0 0zm.3-16.6c0-.1-.2-.1-.2-.1.1.1.1.1.2.1zm.4 60.5c0-.1 0-.3-.2-.3 0 .1.1.2.2.3zm0 .1c0 .1 0 .2.1.2.1-.1 0-.2-.1-.2zm.9-.6c-.1-.1-.3-.5-.5-.3 0 .6.5 1 .9 1.3-.2-.2-.3-.7-.4-1zm.4-6.3c-.1-.8-.3-1.7-1.1-2.1h.6v-.9h-.9v.9h.1c-.1 0-.1.1-.1.1 0 1 .8 1.5 1.4 2zm-.6-6.3c-.1-.2-.1-.5-.4-.6l-.1.1c0 .3.3.4.5.5zm.4 3.8c0-.2-.1-.4-.3-.3.1.2.2.2.3.3zm.2-31.7c0 .1.1.1.2.1v-.1h-.2zm-.6-29.3s.1.1.1 0h-.1zm-.1 13.5c-.1.2-.4.2-.5.5-.1.3.2.5.4.6.3.1.6-.2.7-.5 0-.4-.3-.6-.6-.6zm-.6-20c.1 0 .3-.1.4-.2 0-.2-.1-.4-.3-.4-.1 0-.3 0-.4.2 0 .1.1.3.3.4zm-.7 9.1c0 .1.1.3.3.3.2 0 .3-.1.4-.3 0-.2-.1-.2-.2-.3-.3-.1-.5.1-.5.3zm-.2-17.7c.1 0 .2.1.2 0 .1-.1-.1-.2-.2-.2v.2zm0 76.4c0-.1-.1-.1-.1-.2v-.6h-.2v-.1c-.1-.1-.3-.3-.5-.2v.3h-.2v.9h.9s0-.1.1-.1c-.1 0 0 0 0 0zm-.7-51.8c.1.3.3.2.5.2v-.1s.1 0 .1-.1c-.2-.1-.4 0-.6 0zm.4 8c-.1 0-.1 0-.1.1s.1.1.1.1c.1 0 .1.1.1 0s0-.1-.1-.2zm-.7 40.4v.9h.9v-.9h-.9zm33.1-56c0-.1-.2-.2-.2 0v.1c.1 0 .2 0 .2-.1zM242 130c-.2 0-.5.1-.5.3-.1.3.1.5.4.5.2 0 .3-.2.4-.3.1-.2-.1-.4-.3-.5zm.8-9.7c0-.2-.2-.2-.3-.1-.1.1.1.2.1.2.1 0 .2-.1.2-.1zm2.3 11.5c-.1-.1-.3-.1-.4 0-.1.1-.1.2-.1.3.1.2.3.2.4.2.2-.2.3-.4.1-.5zm1.6-9.6c0-.5-.7-.7-1.1-.7-.2.1-.5.3-.5.5 0 .3.1.6.3.7.2.1.5.1.8.1.1-.2.4-.3.5-.6zm3.6 28.9h-.2.2zm-3.7 20.6c0-.1 0 0 0 0zm.3-2.1c-.1 0-.2 0 0 0-.1.1-.1.1 0 0 0 .1 0 .1 0 0zm.2 2.1zm.5-4.2l-.1.1.1-.1c-.1.1 0 0 0 0zm.2 4.5l-.1.1c.1 0 .1.1.2.1s0-.1-.1-.2zm.5-1.4c0-.1-.1-.1 0 0h-.1.1zm2.1 4zm1.5-9.2c.1 0 .1-.2.1-.2 0-.1-.1-.1-.2-.2-.1 0-.4 0-.4.2 0 .1.1.1.2.2h.3zm.2 3v-.1h-.1c-.1.1 0 .1 0 .2.1 0 .1 0 .1-.1zm.7-3.9c0-.1-.1 0-.1 0 0 .1.1.1.1 0 0 .1.1.1 0 0zm.3 3.3c0-.1-.1-.1-.2-.1s-.1.1-.1.2.1.1.1.1c.2 0 .3-.1.2-.2zm5.6-38.5c0 .1.1.2.2.3 0 0 .1 0 .1-.1l-.3-.2zm-1.8 32.3s-.1 0 0 0c-.1.1 0 .1 0 .1.1 0 .1-.1 0-.1zm-.4-22.9c.1.1.2.1.3 0 0-.1 0-.1-.1-.2 0 .1-.2 0-.2.2zm-2 33.7s-.1 0 0 0c-.1 0-.1 0 0 0zm0-8c0-.1 0 0 0 0zm.2 10.2zm.3-10.9c-.2-.4-.8-.3-1 0 .2-.1.3 0 .2.2h.6c-.1-.2 0-.3.2-.2zm.8.4c.1-.1.1-.1 0 0 .1-.1 0-.2-.1-.2 0 0-.1 0-.1.1.1.1.2.1.2.1zm.4 8.6c0-.1-.1-.2-.2-.2s-.1.1-.1.1c0 .1 0 .1.1.2h.2v-.1zm-.1-4.8c.1-.1 0-.1 0 0 0-.1 0-.1 0 0zm.8 7.6c-.1 0-.1 0 0 0-.1 0-.1 0 0 0zm.7-12c0-.2.2-.3.2-.8-.7 0-.8 0-1 .4-.1-.1-.5-.1-.4-.4l.4-.2c.2-.2-.2-.2-.2-.3.1-.6-.6.4-.4.3-.2.1-.3-.5-.4-.6-.5-.5 1-.4 1-.4.2-.2-.4-.4-.6-.4-.2-.3-.2-.1-.4.2-.5 0-.5 0-.8-.2.1.2 0 .3-.2.2.2.3.2 0 .4.2s-.1.2.2.4c0 .8.3 1.5.8 1.8.2.2.7.6 1 .2h.6c0 .1-.2-.5-.2-.4zm.8.2c.1-.1-.1-.3-.2-.2-.1.1.1.3.2.2zm1.8 3zm-.6.3s.1 0 0 0c.1 0 .1 0 0 0 .1-.1 0-.1 0 0zm-.4 2.3h.2c-.1-.1-.1-.1-.2 0zm-.2-2.9c0 .1.1.1 0 0 .1.1.1 0 0 0 .1 0 0 0 0 0zm-.6-.9v.2c0 .1.1.1.2.1s.1-.1.2-.1c0-.1 0-.1-.1-.2h-.3zm.2-2.6h-.4v.2c.2.3.3-.1.4-.2zm.2-1c-.1 0-.8 0-.4.4.2.2.2-.2.2-.2.2.1.2 0 .2-.2zm1.4-.6c-.3-.3-1.9 0-2 .2.3.2.2-.2.4.2h.8c0-.1.9-.3.8-.4zm.1-19.2l-.1-.1-.1.2h.1s.1 0 .1-.1zm.6-6.3c0 .1 0 .2.1.2s.2 0 .2-.1c.1-.1-.2-.2-.3-.1zm.9 23zm.1-16.7c-.1 0-.2-.1-.2 0s0 .1.1.1l.1-.1zm1.2 18.7c-.1 0-.1 0 0 0zm0-8.5c-.2 0-.5-.2-.8 0 .3.2.6.1.8 0zm.9 5.7s0-.1 0 0c-.1-.1-.1 0-.1 0h.1zm.7 3.5s-.1-.1-.1 0c-.1 0-.1.1-.1.1l.1.1c.1-.1.1-.1.1-.2zm.2-2.6s0-.1 0 0c-.1-.1-.1-.1 0 0-.1 0 0 0 0 0zm.6 1.1c0-.1 0-.1-.1-.1s-.2.1-.1.1l.1.1c.1 0 .1 0 .1-.1zm-10 26.3s-.1 0 0 0zm.4-.1c-.1 0-.1.1-.2.2.1-.1.2-.1.2-.2zm.1-1.2c-.1 0-.1.1 0 0-.1.1 0 .1 0 0zm.2 1.2zm.5-2.3c.1-.1.1 0 0 0 .1 0 .1 0 0 0zm-.4 1.9zm.1.1zm.1-.9s-.1 0 0 0c-.1 0-.1 0 0 0zm0 .9c0 .1 0 .1 0 0 0 .1 0 .1 0 0zm.1.5zm.3-.8c0-.1 0 0 0 0-.3.1-.3.3-.4.4.2-.2.4-.2.4-.4zm.3-2c-.1 0-.1 0-.1.1 0 0 0-.1.1-.1zm.4 1.8c0 .1-.1.1-.1.2 0 0 .1-.1.1-.2zm.2-.2s-.1 0 0 0c-.1.1-.1.1-.1.2 0-.1.1-.1.1-.2zm0-.8zm.4 1.4c-.2 0-.2.2-.3.3.1-.1.3-.1.3-.3zm.9-1.9c0 .1 0 0 0 0zm.4 3.3c-.1 0-.1.1 0 0-.1.1 0 .1 0 0zm2.2-8.6c0-.1 0-.1 0 0zm-.2-.7c0-.1 0 0 0 0zm-.6-1.8c0-.1 0 0 0 0zm-.7 1s.1 0 0 0zm-.5 2.5c0 .1 0 .1 0 0zm-.1 2.6c0 .1 0 0 0 0zm.2 1.5c-.1 0-.1.1-.1.1.1 0 .1-.1.1-.1zm.4 3.4l-.1.1c.1 0 .1-.1.1-.1zm.2-2.7c-.2 0-.3.2-.4.4v.1c-.1 0-.1.1-.1.1.1 0 .1 0 .2-.1 0-.2.3-.3.3-.5zm-.1-5.7c-.2 0-.3.2-.4.3 0 0-.1 0-.1.1h.1c.2 0 .3-.1.4-.3.1 0 .1-.1 0-.1zm.2-.2c.2-.1.4-.2.4-.4-.1-.1-.2 0-.2 0-.2.1-.3.3-.4.4v.1s.1-.1.2-.1zm.2 9.2c-.1 0-.1.1 0 0 0 .1 0 .1 0 0zm.1-5.6c-.1 0-.1.1-.1.1s.1 0 .1-.1zm.2-3.8c-.1 0-.1 0 0 0-.1.1 0 0 0 0zm.3 2.5c-.1 0-.1.1-.1.1s.1 0 .1-.1zm.9 7.9l-.1.1c.1 0 .1 0 .1-.1zm-.5-.3l.1-.1c.2-.1.3-.3.4-.5 0 0 0-.1-.1-.1-.2.1-.3.3-.3.6-.1 0-.1 0-.1.1zm0-.4s.1-.1 0 0c0-.1 0-.1 0 0zm.4-5.1c-.2 0-.3.2-.4.3l-.1.3c-.1 0-.1.1-.1.2h.1c0-.2.2-.2.3-.3.1-.2.2-.3.2-.5zm.1-1.1c-.1 0-.1.1 0 0-.1.1 0 .1 0 0zm.3-9.4c.1 0 .2-.1.3-.1.1-.1 0-.1 0-.2s-.1-.1-.2-.2h-.2c-.1 0-.1.1-.1.2.1.2.1.3.2.3zm.1 1.8s-.1 0 0 0c-.1.1-.1.1 0 0 0 .1 0 .1 0 0zm.2 3.2c-.1 0-.1 0-.1.1l.1-.1zm0-3.1zm.2 7s-.1 0-.1.1v.1c0-.1.1-.2.1-.2zm0-8.7h-.1l-.1.1c.1.1.2 0 .2-.1 0 .1 0 0 0 0zm.4-.7c0-.1 0-.1 0 0 0-.1-.1-.1 0 0zm.2-2.9c-.1 0-.1 0 0 0zm.2 0s0-.1 0 0c0-.1-.1 0 0 0zm.1-1.2s-.1 0 0 0zm.3 5.5s0 .1 0 0zm.4-4.9c0-.1-.1-.1-.2-.2-.1 0-.2.1-.2.2s.1.2.2.2l.2-.2zm.6 12.5c.1 0 .1-.1.1-.1-.1-.1-.1 0-.1.1zm.5-16.2c.1 0 .1 0 0 0h0zm-.3 5.2zm-.6-2.9c0-.1-.1-.1 0 0zm0 5.4zm.2-2.9c0 .1 0 .1 0 0zm.1-2.6h-.2c.1 0 .2.1.2 0zm.2 3.2h.1c0-.1-.1 0-.1 0zm.2.5c-.1 0-.1 0 0 0-.1.1-.1.1 0 0zm.1-5.7s-.1 0 0 0zm.1 7.7zm.2-1.8zm.3-3c-.1-.1-.2 0-.4 0l-.1.1c.1 0 .1 0 .2.1.1-.1.3-.1.3-.2zm0-1.2c0-.1-.1-.1-.2-.1-.1.1-.2.2-.3.4 0 0-.1 0-.1.1.2-.1.3.2.5 0 .1-.2.1-.3.1-.4zm.5.7c0-.1-.1-.2-.1-.2-.1 0-.3.1-.2.3 0 .1.1.1.2.1 0 0 .1-.1.1-.2zm.5 1zm.1-.8zm.1-11.4c0 .1 0 .1 0 0 .1.1.1 0 0 0zm.1-20.3l-.1-.1v.1h.1zm.6 26.3c0-.1 0-.1-.1-.2v.1s0 .1.1.1zm.1 1.2s-.1 0 0 0c-.1 0 0 0 0 0zm.1-6.3c-.1 0-.1 0 0 0zm.2 4.2c-.1 0-.1 0 0 0 0 .1 0 .1.1.1-.1 0-.1-.1-.1-.1zm1.2-1c0 .1.1.1.1.1.1 0 .1-.1.1-.1s-.1 0-.1-.1c-.1 0-.1.1-.1.1zm-.9 6.7s0-.1-.1-.1c0 .1 0 .2-.1.3.1 0 .2-.1.2-.2zm.5-.6c0-.1-.1-.1-.1-.1-.1 0-.1.1-.1.1l.1.1.1-.1zm1.1-1.4c-.1-.2-.2-.3-.4-.3 0 .1-.1.2-.2.1-.1-.2-.3 0-.4-.1-.2.1-.3.2-.4.3v.1c.1.1.1.3.2.4.1 0 .3.1.5 0 .3 0 .1-.4.4-.3.1.1.2 0 .3-.2zm.3 1.1s-.1-.1 0 0c-.1 0-.1 0 0 0-.1 0-.1.1 0 0zm.1-3.3s-.1 0 0 0c-.1 0 0 0 0 0zm.4.5h-.1c.1 0 .1.1.1 0zm0-1.1c0-.1 0-.2-.1-.3-.2-.1-.4-.2-.6-.1-.1 0-.2.1-.2.2 0 .2 0 .4.2.5.1.1.3.1.4.1.2-.1.4-.2.3-.4zm.2-.3c0-.1 0-.1 0 0-.1-.1-.1-.1 0 0zm1.3-2.1c-.1-.2-.3-.3-.5-.3-.2.1-.4.2-.4.5.1.2.1.3.3.4.2.1.3 0 .5-.1.1-.1.2-.2.1-.3.1 0 0-.1 0-.2zm.3-1c0-.1 0-.3-.1-.3-.1-.1-.3-.2-.5-.1-.1.1-.3.3-.3.5 0 .1.1.2.2.2h.1c0 .1.1 0 .1.1.1 0 .3 0 .4-.1.1-.1.2-.2.1-.3zm.6-.6s-.1 0 0 0zm.1-4.3zm.6 5.4c.1 0 .1-.1.1-.2h-.1c-.1 0-.1.1 0 .2-.1 0-.1 0 0 0zm.1.7s0 .1 0 0c-.1 0-.1.1-.1.2h.1c.1 0 .1-.1 0-.2zm.2-.3c.1 0 .1-.1.2-.2v-.3c-.1.1-.2.2-.2.4-.1 0-.1.1 0 .1zm.1.8c-.1.1-.2.1-.1.2v.1c0 .1.1 0 .1-.1.1-.1.1-.2 0-.2zm.4-.7c-.1 0-.1 0-.1.1h.1v-.1zm1.2 1.8c0 .1 0 0 0 0 .1 0 .1-.1.1-.1-.1 0-.1.1-.1.1zm.1 1.5s-.1 0 0 0zm-.4 2.9zm.2-.1c0-.1 0-.1 0 0-.1-.1-.1-.1 0 0-.1 0-.1 0 0 0zm0-.4s-.1 0 0 0zm.1-.8c-.1 0-.1 0 0 0-.1 0 0 .1 0 0zm.1.7c-.1 0-.1.1 0 0zm.2-4.2c0-.1-.1 0-.1.1l.1-.1c-.1.1 0 0 0 0zm0 .8c.1 0 .1-.1.1-.1-.1-.1-.1 0-.1.1zm.4 3c-.1-.1-.1-.1-.2-.1h-.2c0 .1-.1.1-.1.2 0 0 .1.1.2.1s.2-.1.3-.2c-.1 0 0 .1 0 0zm.8-.3c0-.1 0-.1 0 0zm-.1-.1c.1 0 .1 0 0 0 .1-.1 0-.1 0 0zm0 .3c0 .1 0 0 0 0 .1 0 0 0 0 0zm-.3-.3s-.1 0 0 0c-.1.1-.1.1 0 0-.1.1 0 .1 0 0zm.1-1.6c-.1 0-.1 0-.1.1v.1s.1-.1.1-.2zm.4 2.6c0-.1-.1 0-.1 0-.1 0-.1.1-.1.2s.1 0 .1 0 .1-.1.1-.2zm.5 1.3h-.2c0 .1.1 0 .2 0zm0-2.4c-.1-.1-.1-.1-.1 0v.1l.1-.1zm.3.3s-.1-.1 0 0c-.1 0-.1 0 0 0zm.2 1.5c-.1 0-.2 0 0 0-.1.1 0 .1 0 0zm.1-1.1h-.1v.1h.1c-.1 0 0-.1 0-.1zm.2 2.2h-.1c0 .1 0 0 .1 0zm0-1zm.6-.7h-.2c0 .2.1.1.2 0-.1 0-.1 0 0 0zm3.8 10.6c0-.1-.1 0-.1-.1v.1h.1zm.2-6.5c.1 0 .1 0 0 0 .1 0 .1 0 0 0zm0 2.1c0 .1 0 .1 0 0 .1 0 0 0 0 0zm-.1-3.6h.1s0-.1-.1 0zm-.4 3.6c.1.1.2 0 .3 0v-.1s0 .1-.1 0-.2-.1-.3-.1c0 .1.1.1.1.2zm-.6-6.5s.1 0 0 0c.1-.1.1-.1 0 0 .1-.1 0-.1 0 0zm-1.3 1.4c0-.1-.1 0-.1 0s0 .1.1 0c0 0 .1 0 0 0zm0-.7c0 .1 0 0 0 0zm.5 0c.1 0 .1-.1.2-.1-.1 0-.3-.1-.4.1h.2zm.3.1h-.2c0 .1.1.1.2 0 0 .1 0 .1 0 0zm.2-.7c-.1-.1-.2 0-.1 0 0 .1.1.1.1 0zm-.2-1.7c.1 0 .1 0 .1-.1.1 0 0 0-.1.1 0-.1-.1 0 0 0zm-.1.2c.1 0 .1 0 0 0 .1 0 .1 0 0 0zm0 1.5s-.1-.1-.1 0 .1.1.1 0zm-.2-2.7c0 .1.1.1 0 0h0zm0 3zm0-3.2zm-.2 1.8c.1 0 .1.1 0 0 .1 0 .2 0 .1-.1 0 0-.1 0-.1.1zm0-1.9zm-.4.3c0 .1.1 0 .1 0v-.1s0 .1-.1.1zm-.1.8zm-.2-.4c.1.1.1 0 0 0 .1 0 .1 0 .1-.1l-.1.1zm0 4.9c0 .1.1 0 .1 0s-.1-.1-.1 0zm-.2-1.6c0 .1.1 0 .1 0 0-.1-.1 0-.1 0zm-.2 1.8c0 .1 0 0 0 0 .1 0 0 0 0 0zm-.6-3.3c.1 0 .1 0 .2-.1 0-.1-.1 0-.2 0v.1zm.1 3.4c-.1-.1-.1-.1 0 0-.1 0-.1 0 0 0zm.1-.8c.1 0 0 0 0 0-.1-.1-.2 0-.2 0 .1.1.2.1.2 0zm.1 2.7h0zm0-3.1c-.1 0-.3 0-.4.1h.2c.1.1.2 0 .2-.1zm.1-1.8s-.1 0 0 0c-.1 0-.1 0 0 0-.1.1-.1.1 0 0 0 .1 0 0 0 0zm3.7-140.6c-.9-.8-1.6.5-2.4.6 0 .5 0 .9.7 1.3.9-.2 1.6-1 1.7-1.9zm3.7-8.3c-.2-2-2.7-2.3-3.9-.1.2.4.1.9.7 1.3 1.2.2 2.2-.5 3.2-1.2zm3.8 14.3c-.2-.1-.3-.2-.4-.1.1.1.3.3.4.1zm.4-1.1c-.8.2.8 0 0 0zm.8-12.5c-.2.2-.5.1-.4.5.2-.3.6-.2.4-.5zm6.9-1.6c0 .2 0-.1 0 0zm2 4.5c-.2-.1-.3-.2-.5-.4-.1.1-.2.2-.2.3-.1.1-.1.2 0 .3.2-.2.4-.1.7-.2zm3.8-4.7c0-.2-.5-.2-.6-.2-.3.1.6.4.6.2zm3 9.9c-.1-.1-.3-.2-.4-.1.1.1.3.3.4.1zm3.2 5.5c0 .2 0-.1 0 0zm13-19.4c-1.2-.2-3.3-1.1-4-.9 1.3.2 2.7 1.3 4 .9zm7.5 10.8c-.4-1.4-.1-2.9-1.5-4.1-1 1.4.2 2.6-.3 3.9.6.3 1.2.5 1.8.2zm10.8 1.8h-.2c-1.3 0 1 .9.2 0zm3.3-.9c-.1.1.1.4.2.2.1 0-.1-.3-.2-.2zm2.8-4.4c-.1 0-.3.2 0 .2.2 0 .3-.2 0-.2zm2.7-1.4c-.1.1.1.4.2.2.1 0-.1-.3-.2-.2zm3.3-2.1c-.1.1.1.4.2.2.1 0-.1-.3-.2-.2zm1.5-7.1c-.1.1.1.4.2.2.1 0-.1-.3-.2-.2zm1.6 1v-.2c-1.7-.3-.8 1.8 0 1.4.4-.2.5-.8 0-1.2zm-23 151c-.1.1.1.4.2.2.1 0-.1-.3-.2-.2zm1.5 14.6h-.4c0 .1.5.2.4 0zm.4 2.1c-.1.1.1.4.2.2.1 0-.1-.3-.2-.2zm2.6-10.6s-.1-.4-.2-.2c-.6.6 1.1 1.1.2.2zm4.7-1.6c-.1.1.1.4.2.2.1 0-.1-.3-.2-.2zm10.2 10.6c-.1.1.1.4.2.2.1 0-.1-.3-.2-.2zm4.7 13.7c-.3 0-.9.3-1.2.5.2-.1.3.3 0 .5s-.2-.4-.5 0c.2-.4.3.8.2.5-.1-.3-.5-.2-.5 0 .1 0 1.9 1.4 2.8.7 1.4-.9 0-2.2-.8-2.2zm3.4 4.7h.2v-.2h-.2v.2zm9.5-2.6h-.2-.5c-.7.8 1.5.8.7 0zm3.8 2.7c.1-.2.1-.5-.2-.8-.5-.4-1.4-.1-1.2.7.1.5.9.5 1.3.2 0 .1 0 .1.1 0v-.1zm1.2-13.3c-.1.1.1.4.2.2.1 0-.1-.3-.2-.2zm.5 9.9c-.1.1.1.4.2.2.1 0-.1-.3-.2-.2zm6.3 1.2c.1-.1-.1-.4-.2-.2-.1 0 .1.3.2.2zm3-12.6h.8v-.2H387v.2zm-3.6-2h.2v-.2h-.2v.2zm1.2 2c-.1-.3 0-.4-.1-.7-.3-.2-.7-.2-.7-.8h-.4c.2.3.1 1.2.4 1.2v-.4h.2v.2h.2v.4c.3.1.3.2.5.3.1.2.3.9.5.9.4-.1.3.8.6.8s-.1.6.1.6c.4 0 .2-1 .2-1.2-.7-.2-.8-.1-.8-1h.5c.1-.2 1.1-.3.9-.3 0 0-2 .3-2.1 0zm2.4-8.8h-.2c0-.1-.3-.5-.3-.4-.2.3.1.5.1.7h.4v-.3zm4.2 4.2h-.3v.2s0-.1-.2 0v.2c.4 0 .2 0 .3-.2h.2v-.2zm1.6-.3h.3v-.2h-.3v.2zm-.2.3c.1-.1.5-.2 0-.2v.2zm.6.2h-.2c-.2 0 0 .1-.1.2h-.2c.1.1.1.1.2 0 .3-.1.3.1.3-.2zm.2-.2c-.1.1-.5.2 0 .2v-.2zm.4-.3h-.2v.2h.2v-.2zm.3-.2v.2c.1 0 .1-.3 0-.2zm4.3-9.9v-.9c-1.5-.4-.7 1.6 0 .9zm-2.6 7.7v-.1h-.2v.1s.2.1.2 0zm.6.2c.5 0 .8-.2 1-.5h-.6c-.2.3-.6.5-1 .5-.2.3-.4.4.2.4v-.2c.6.1.2.1.4-.2zm2.2-.7h-.2v.2c-.2.1-.1-.1-.1.2-.5.1-.8.2-1 .5h-.4c-.2.3-.4.2-.7.6h.4c.4-.1.6-.3.8-.6.6 0 .6-.5 1.2-.5v-.4zm7.5-7.4h-.2v.2h.2v-.2zm2.9-3.5c-.2.4-.4.8-.8 1.1.7.2 1.2-.8.8-1.1zm2.4.1c-.5 0-.7.1-.7.6.5 0 .8-.1.7-.6zM390.2 173v.2h.2v-.2h-.2zm-200.4 8.8c.1.1.3-.1.2-.2-.1-.1-.3.1-.2.2zm197.7-10.1h-.4v-.3h-.4c0-.1-.1-.4-.1-.4h-.2c.2.3 0 .1.2.2.1.2.1.3 0 .5.1 0 .9.6.9 0zm-108.2-.3c-.1 0-.3.2 0 .2.2 0 .3-.2 0-.2zm63.5 7.7h-.4v.4c1 0 .4.1.7-.2.3-.2.2-.4-.2-.4-.1.1-.1.1-.1.2zm43.2-7.6h.2c.1-.2-.3-.1-.2 0zm-106.2 2c.1-.1-.1-.4-.2-.2-.1 0 .1.3.2.2zm66.2-68.7l-.9.2.5 2.1.4-2.3zm-119.5 73.7h.4v-1.2h-.4v1.2zm193.3-6.1c-.1 0-.1.4.1.3.1 0 .1-.3-.1-.3zm-134.3-19c-1.2 0 1.1.8.2 0h-.2zm130.4 19.3c-.1 0-.1.4.1.3.1 0 .1-.4-.1-.3zm-11.2 1.5c-1.1-.6.5 1.3.2.1 0 0-.1-.1-.2-.1zm-13.8 3.9h-.2c0 .6-.1 1.2.2 1.4 0 .3-.1 1 .1 1.2v-.2c.2-.2.1 0 .2-.2.1-.1.8-.4.8-.6 0-.1.7-.7.7-.9 0 0 .6-.7.7-.7 0 0 .7-.5.8-.6v-.2h-.4c-.2.7-2.9.3-2.9.8zm21.9-5.3c.1.1.4-.1.1-.2-.1 0-.3.1-.1.2zm-226.7-63.5c0-.2-.1-.1-.2-.3-.3.1-.3.2-.2.5.3 0 .3-.2.4-.2zm222.2 65.8c-.1 0-.1.4.1.3.1 0 .1-.3-.1-.3zm-187.8 4.2zM59.9 59.8v-.1.1zm12.3 121.6c.2.2.2-.1 0 0zm36.7 3.2v-.4h-.2v.4h.2zm-68.8-2.4v.2h.2v-.2h-.2zm144.7-61.9c-.2.9.6 1.4 1.1 1.9.4-.5-.5-1.9-1.1-1.9zm-.9 14c.2-.1-.1-.5-.3-.3 0 .2.2.1.3.3zm96.3 37.8c.5 0 2 .2 2.7.2 0 .4 0 .2.2.4-.1 1.3-.2 2-.2 3.4 0 1.1 0 3.3-.4 4.2-.6 1.4-.1 3.9-.2 5.4-.1.9-.2 2.4-.4 3.4-.6 0-1.3-.1-1.7.1l-.2-1.2-2.5-5.4-.3-1-.2-.5.3-.3.7-1.6v-3.8l.6 3.9.5 1.4c-.1 0-.1.1-.1.1 0 .1.1.1.1.1l.4 1 .3.3-.3.9.2.9.4-.2.4.4-.4 1.8v.4l.4.2.4-.3.6-2.1-.3-2.2.5-.7-.4-4.9-.7-2.3c-.3 0-1.2-.3-.8-.7.2-.2.5 0 .6.1l-.4-1.4h.2zm-2.1 10.3c-.1 0 0 0 0 0zm4.3-10.1c0 .1.1.1.2.1 0-.1-.1-.2-.2-.1zm-.7 1.7c0 .1.1 0 .1 0s.1-.1 0-.1c0-.1 0 0-.1.1zm-.4 0h.1-.1zm-.4.3zm-165.6 3.5v.4h.2v-.4h-.2zm-73.2 1.8v.2h.2v-.2h-.2zm345.4-8.6v-.2c-.1 0-.6.2 0 .2zM58.9 183.6h.2v-.2h-.2v.2zm-18-4.3h.2v-.2h-.2v.2zm.4.5h.6c0-.3 0-.2-.2-.2v-.2h-.4v.4zm0-2.2h.2v-.2h-.2v.2zm.6.4v.2h-.2v.6h-.2v.4c.2 0 .2 0 .2-.2h.2v-.4h.4v-.4h-.2v-.2h-.2zm206.6 20.3h.5v-.2-.2h-.4c-.2.3-.1.3-.1.4zm-.3-.7c.1.1.3-.1.2-.2-.1-.1-.3.1-.2.2zM40.1 175.7h.4v-.2h-.4v.2zm244.1-4.7h.3v.8c-.5-.1-.3-.3-.3-.8zm.1.4zm-242.2 3.2h-.2v.6c.4.1.2-.1.2-.6zm203.7 13.6h-.4v.2h.4v-.2zm6.4 8c0-.2-.1-.3-.2-.4-.4-.3-.9 0-1.4.2 0-.5.1-1-.2-1.2 0 1.3-.1 2.4-.1 3.5h1.8c0-.2.1-.3.1-.4-.5 0-1.2.2-1.4.2.2 0-.1-.2-.2-.2 0-.2.2-.5.2-.4 0-.1-.1-.4-.2-.6.6.1 1.5-.3 1.6-.7zM59.1 183.4h.2v-.2h-.2v.2zm183.7 14.9h2.1-2.1zm8.4-.7c.1.1.3-.1.2-.2-.1-.1-.3.1-.2.2zm-12.4-12.2v.2c.1-.1 0-.1 0-.2zM40.1 177h-.2v.2h-.2v.2h.4v-.4zm.4 3.6h.2v-.2h-.2v.2zm.2-1.2h-.2v.2h.2v-.2zm208.7 17.2h-.2v-.4c-.2.2 0 .2-.2.4 0 0-.7-.4-.8-.4-.2.4-.7.2-1 .6-1.5 0-1.6.6-3.2.6 0 0 .3.4.2.4-.6.3-1.5 0-2 .2-.3-.4-.8.1-.8-.6-.7 0-.7.3-1.2.4 0 0 .1-.3-.2-.2 0 0-.5.5-.8.2.1.1.2-.7.2-.8-.4.2 0 .1-.2.4-.3.1-.4 0-.4 0v-2.3c.5-.1 1-.2 1.4-.3-.2.1.1.2.2.2h1.4c.4.1.4-.4.8.2.5-.2.3 0 .6-.2 0-.1-.2-1.2-.6-.8-.5.5-.3-.2-.8-.2-.4 0-1.2.6-1.6.2-.2-.2-.8 0-1-.2-.1-.1-.3-.2-.4-.3v-.5c.5 0 1 .1 1.2-.2h-.4c0-.1.3-.3.2-.4-.1-.2-.5 0-.6-.2h-.4v-1.2c.2 0 .5 0 .6-.2h-.2c-.2-.3 0-.3-.2 0h-.2v-.4h.4c.3-.4.8-.3 1.2-.6 0 .1.3.3.2.4h-.4c-.3.4-.4.1-.4.8h.4c.2-.4.4-.1 1-.2.1-.2.4-.4.4-.5 0 0-.3-.4-.2-.2.9 0 1.1.2 2.2.2l.2-.4h.6l-.6.6h1v.4c-.4 0-1-.1-1 .4 0 .1 1.1.6 1.2.8.3-.1 1.1 0 1.2-.2h.4l.4.4c1.2 0 2-.1 2.4.6.3 0 0 1.7-.2 2-.3.2-.2-.2-.4.2-.3-.2-1-.3-1.4-.4.2 0-.1.2-.2.2v.6c.3-.1 3 .1 2.2.9zm-8.8-3.6c-.2.1-.3 0-.2-.2-.4.3 0 .6.2.2zm.6-1.2c-.6.1-.4-.1-.6.2.6-.1.4.2.6-.2zm1.4 1.4h-.6v.4h.6v-.4zm.4 4.2h-.4v.2c.3.2.4-.1.4-.2zm.8-3.8v-.4h-1l.2.4h.8zm.6.8c-.2-.3-.1-.4-.6-.4l-.2.4h.8zm.6-1.8h-.8v.4h.8v-.4zm1.8.6v-.4c-.2-.2-.2 0-.2-.4-.5.4-.9-.1-1.4.2v.6c.5 0 .8.2.8-.4h.4c.3.5 0 .1.4.4zm-.2 2.4c-.1.1.1.3.2.2.1-.1-.1-.3-.2-.2zM41.1 181.8h.4v-.4h-.4v.4zm186.8-14.3h-.4c0 .6-.1 1.3.2 1.6.2-.3.2-.3.2-.8v-.8zm1 9.6c.3-.5.2-1.7.2-2.6h-.2v-.2h-.6c0 1-.6 2.8.6 2.8zm-.4.6c.1.1.3-.1.2-.2-.1-.1-.3.1-.2.2zm-.2.4c.1.1.3-.1.2-.2-.1-.1-.3.1-.2.2zm.6-9.2c.4-.5.1-1.8.2-2.4v-.8h-.8c.1.8.2 1.3.2 2-.1 0-.2 1.2-.2 1.2h.6zm-2 5.6c-.2.1-.3 0-.2-.2h-.2v1h.4v-.8zm.8-9h-.2c-.3.5-.5 1.4.4 1.4v-1.2h-.2v-.2zm.2 9.8v-1h-.4c-.3.4-.3 1 0 1.4.3-.3.4.2.4-.4zm0 .6h-.4c0 .7-.4 2.8.4 2.8 0-.9-.1-.8 0-1.8v-1zm5.6 8.9h-.8v.4c.2 0 .6.1.8.2v.4h.4c0-.2.2-.5.2-.4.1-.2 0-.3-.2-.2v-.2c-.4 0-.3.1-.4-.2zm2.8 10.8h-.4c-.2.3 0 .1-.6.2v.4c.3.2 0 .4.2.6.2.2.2-.2.2-.2h.6v-1zm-.2-.4s.1-.1.2-.1l-.1-.3c-.1 0-.1.2-.1.2-.1.1 0 .1 0 .2zm0-1zm-.1-.4l-.3-1.6-.2.2c0 .7-.1.7-.2 1.6.5-.1.4 0 .7-.2zm-6.3-2c-.5.1 0-.2-.2-.2-.2-.1-.3 0-.2.2 0 0-.7-.1-.4.2.1.1 1.5 0 1.6 0v-.4c.2 0-1 .2-.8.2zm6.2 6s.3.2.4.2c.2-.3-.2-.6-.4-.2zm-5.8-3.8c.2.2.2-.2.2-.2v-.2c-.1 0-.5.2-.2.4zm3.8-9.2v.2c.3-.1.2 0 0-.2zm1.4 6h.2l-.2-.8h-2.4v.4c.4 0 .5.2.6.2.3.1.8-.4 1.2 0-.1-.1.8.3.6.2zm13.7 6.8v-.8c-.3.2-.3.6 0 .8zm35.4-21.5h-.2c0 .4-.2.6.3.7v-.9h-.1v.2zm-19.3 9.9c.1.1.3-.1.2-.2 0 0 0 .1-.1.1h-.1v-.1.2zm19.4-8.4v-.5c-.1-.1-.2-.1-.3-.2 0 .4.2.5.3.7zm-20.6 20.7h.4c0-.7-.2-.5-.4 0zM262 196c-.1-.1-.3.1-.2.2.1.1.3-.1.2-.2zm1.4-12.2c.1.1.3-.1.2-.2-.2-.1-.4.1-.2.2zm21.1-5.6v-.4h-.3c.1.2.2.4.3.4zm-12.5-5.9c-.2 0-.8.3-.5.7.2.2 1.2-.6.5-.7zm-.2 1.2c-.1 0-.3.2 0 .2.1 0 .2-.2 0-.2zm-3.6 12.3l.1 3.4h-.7v-.1.1c-.8.1-1.8.3-2 .2l-.2-.4c-.3-.2-.3-.7 0-1-.1-.2 0-.3.2-.2v.2h.2s-.1-.5.2-.2v.2c.2 0 .5-.3.6-.4 0-.3.2-1.1.4-1.2v-.4c-.8-.2-.7.1-1-.4.4 0 .5-.1.6-.4l1.2.9.3-.5h.1zm-2.8 2.9c0 .1 0 .1 0 0zm1.1-.5s-.1.1 0 .1v-.1zm.1-.3c-.1-.1-.1.1-.1.1v.1l.1-.2zm.3.7zm.2-.1c0-.1 0 0 0 0zm.9-1.3c-.1 0-.1 0 0 0 0 .1 0 0 0 0zm0-.5c-.1.1-.1.2 0 .3v-.3zm.1-.8c-.1 0-.2.1-.1.2.1 0 .2-.1.1-.2zm6.3 2.8c.1.5-.1.3.3.7 0 0-.2.7-.2.8.8 0 .5-.1.7-.3l-.5-.8-.3-.4zm-7.9-3.4l-.1-.9c-.1.1-.3.3-.3.5 0 .1.1.2.1.3v.1h.3zm-5.3 13c.2-.1.2 0 .2-.4.5.1.4 0 .4.4h.2v-.2l.4-.2v-.4c-.8 0-.6.2-1.2.2v.6zm11.8-24.1c0 .3-.3.4 0 .5.2 0 .3-.4 0-.5zm-218.1-98c-.1 0-.4.2-.5.3h.1c-.2.1-.2.3-.5.3v-.1c-.1 0-.1.2-.1.2-.2.1-.3.1-.4.1-.2 0-.4 0-.6-.1 0-.1-.1-.1-.1-.3-.2.1 0 .1-.2.1-.5-.3-.8-.6-.9-1.4h.1c0-.1-.1 0-.1-.1v.1c0-.1-.1-.2-.1-.3h-.2v-.1.1c-.1 0-.2-.1-.2-.1v-.2h-.1.2c.1 0 .1 0 .2-.1v.1c.1 0 0-.2.1-.2 0-.6.5-.9.5-1.5.1.1 0 .1.1.2 0-.1.1-.2.2-.3v-.1-.2h.1c0-.1 0-.1-.1-.1 0-.1.1 0 .1-.1v-.1c.1 0 .1.1.1.1v-.1h.5c0 .1.1.1.1.1.1 0 .2-.1.3-.1 0 .1.2.2.2.4h.2c0 .2.2.1.3.2v.2s.1 0 .1-.1c0 0 .1.1.1.2h.1c0 .1.1.2.2.2 0 .2.1.1.2.3v.2h.1c-.1.2.2.3 0 .4v-.1h-.1-.1c-.1.2-.3.3-.1.6h.1l.1.1h.1s.1 0 .1-.1c.1 0 0 .3 0 .4 0 0 .1 0 .1.1s-.1.1 0 .2v-.1h.1c0 .1 0 .1-.1.1v.2c-.1 0-.3 0-.3.3-.1-.2-.2 0-.3-.2-.1 0-.1.1-.1.1l.3.3.2-.2v.1c-.1-.3.6-.5.7-.4.2.3-.4.5-.6.4-.2-.1-.2 0-.2.1zm-2.3.3l-.1-.1-.1.1s.1.1.2 0c0 .1 0 .1 0 0zm0-.5c-.1 0-.1-.1-.1-.3-.1 0 0-.1-.1-.1v.1c.1.1 0 0 0 .1s.1.1.1.1c0 .1.1.1.1.1zm.1-.3c-.1 0-.1 0-.2.1.1 0 .2 0 .2-.1zm.2.1v-.2.2c0 .1 0 .1 0 0zm.1-.1c-.1-.1 0-.4-.1-.5 0 .2-.1.1 0 .3 0 .1 0 .2.1.2zm1-.3c-.1 0-.1.1-.1.1l.1.1c-.1-.1-.1-.2 0-.2zm.1.8c-.1 0 0 .1 0 .1v-.1zm0 .3v.3c0-.2.1-.3 0-.3zm.2-.1c-.1 0-.1 0 0 0-.1 0-.1 0 0 0h-.1c.1 0 .1.1.1.1h.1c-.1-.1-.2 0-.1-.1zm197.5 110.4c-.6-.5-.7-1.3-1.2-2-.4-.3-.3-.8-.6-1.2-.2 0-.4-.2-.4-.2h-1s-.5.2-.8.2c.1.5 0 .5.2.8-.1.1-.4.4-.5.4 0 0-.5-.3-.5-.2-.2.9 0 .8-.6 1.2 0 .6.1.7.2 1.4-.4.2-.3.2-.6.4v-.6h.2v-.4c-.2.1-.3 0-.2-.2h-.4c.2.4.2.3.4.6h-.8c0 .2.2.5.2.4 0 .3-.2.3-.4.4v.4h-.2c-.1 0 0-.8 0-.8-.1.1-.4.5-.4.6 0 .2.1.3.2.4h-.8v-.8c-1.2 0-1 .4-1.6.8 0-.6-.3-1.4-.6-1.8-.4 0-.4 0-.6.2-.2-.1-.4-.4-.6-.4-.1 0-.5.7-.6.8h-.4c0-.2.2-.5.2-.4 0-.3-.2-1-.2-1.6-.5-.3-.1.1-.4-.4-.2-.1-.2-.4-.2-.7v-.6-.8c.2 0 .5.2.4.2.2 0 .3-.1.6-.2-.2-.4-.2-.6-.4-1 1 0-.3-.5.2-1-.2.2 1-.2 1-.2v-1c-.8-.2-.4.1-.8-.4-.4.2 0 .1-.2.4-.4-.1-.6-.2-.8-.3v-.2.1h1v-.4h-1v-15.3c.4.7.8 1.4.8 1.8.3.2 1.5 1.7 1.4 2.2 0 .2 1 2.2 1.2 2.4 1.1 1.1 1.7 3.1 2.6 4.4.3.3 1.7 2.6 1.6 3 0 .3.9 1.4 1 1.6.3.6.5 1.1.8 1.6.6 1 1.2 2.1 1.8 3 .6 1 .9 2.2 1.6 3.2.4 0 0-.1.2.2zm-11.8-3.2c-.2.1-.3 0-.2-.2-.4.3 0 .7.2.2zm.6-1.8c-.1.1.1.3.2.2.1-.1-.1-.3-.2-.2zm.4-.7s-.2-.4-.4-.2v.2h.4zm10.8 5.7c0 .4 0 .2.2.4 0-.4 0-.2-.2-.4zM51.4 126.2c-.1.2.3.6.4.1.1-.2-.3-.6-.4-.1zm200.8 61h-.2c.2.5 0 .3.2.6.3.2.3.6.6.8v-.6c-.3-.1-.4-.5-.6-.8zm14.9-17.2c-.1 0-.3.2 0 .2.1 0 .2-.2 0-.2zM57.5 81.5s0-.1-.1-.1v-.1.1c0-.1 0-.1-.1-.2 0 0 .1-.1 0-.2v.1h-.1-.1s.1 0 .1-.1v-.1c0-.1.1-.2 0-.3v0h-.1s0-.2-.1-.2c0-.1-.1-.1-.2-.1h-.1v-.1c-.1-.1-.1-.1-.2-.1v0c-.1 0-.1.1-.1.1 0-.1 0-.1-.1-.1v0l-.1-.1v.1h-.1s-.1 0-.1-.1v.1c-.1.1-.2.1-.2.2h-.1v-.1.2l-.1-.1c0 .1-.1.1 0 .2v.1c-.1.3-.2.5-.2.9-.2.1 0 .4 0 .6.1 0 0 .1.1.2.1.4.4.7.6 1 .2 0 .2-.2.3-.2h.2c0-.1.1-.1.2-.1.1.1.2.1.2.2-.1.1 0 .2-.1.3h.1s.1 0 .1.1c.2 0 .3-.1.4-.1 0-.1.1-.1.1-.1.1-.2.2-.4.3-.5 0-.1 0-.2-.1-.2h-.1c0-.1.1-.1.1-.2 0 0 .1 0 .1-.1v-.1 0c0-.2.1-.3 0-.4v-.1c-.4.2-.4-.1-.4-.3zm200.3 115.1c-.1-.1-.3.1-.2.2.1.1.3-.1.2-.2zm26.6-23.4h-.2v.4h.2v-.4zm-23.6 23.2c.1.1.3-.1.2-.2-.1-.1-.3.1-.2.2zm-6.2-7.6v-.4c-.3.2-.1 0-.2.6.2.1.3 0 .2-.2zm.2-5.8c-.1-.1-.3.1-.2.2.1.2.3 0 .2-.2zm4.6 14v.4c.2-.2.2-.2 0-.4zm-1.2.6c-.2-.2.2-.2.2-.2.1-.2 0-.3-.2-.2-.4-.6-2-.3-2.2 0 0 0-1.7.1-1-.6.2-.2 1.5 0 1.8 0v-.4h-2.2c0-.7-.4-1.4-.4-2.2 0-1.1.5-4.3-.2-5-.2-.2-.2.2-.2.2-1 0-.6 2.6-.4 3.2.4 1.3.2 3.7.2 4.8 0 .5 0 .8-.1 1.2h1.7v-.2h.2c.1-.3 1.4-.5 1.4-.2.5.2.3 0 .6.2v.2h.4v-.2c.2.1.2.1.2.2h.9s.1-.1.1-.2c.1-.1.6-.3.6-.4 0-.2-.1-.3-.2-.4h-1s0 .4-.2.2z"/></svg>